<svg width="172" height="70" viewBox="0 0 172 70" fill="none" xmlns="http://www.w3.org/2000/svg">
<path d="M0.154212 48.3811C0.154212 46.7298 -0.554536 43.1883 1.06681 42.1795C3.25614 40.8175 4.11978 43.4432 4.68612 45.1233C5.79983 48.4271 5.2822 53.9359 7.31001 56.6268C20.6127 33.3124 41.0151 15.872 66.3513 6.9007C91.5514 -2.02233 122.426 -3.7499 146.16 10.534C157.776 17.5251 167.422 27.6428 171.059 41.0679C171.371 42.2199 173.178 47.843 170.757 47.6134C169.496 47.4938 167.246 40.2514 166.643 39.0212C163.51 32.6256 159.445 27.1384 154.164 22.3867C136.171 6.19617 109.45 2.93071 86.5588 7.21845C71.395 10.0589 56.5347 16.3688 43.7648 25.1448C37.1733 29.6745 30.8763 34.9333 25.5702 40.9522C21.0947 46.0287 13.5372 54.2057 12.1781 61.0688C18.1918 60.1625 23.5276 53.3382 29.3964 51.5444C32.5054 50.594 36.0664 52.1185 33.9062 55.6489C32.1549 58.5111 26.505 60.3209 23.6426 61.8563C20.4486 63.5695 17.2171 65.1693 13.8774 66.5756C11.4275 67.6072 6.60152 70.8425 3.99499 69.7934C-0.613994 67.9384 0.29099 52.6144 0.154212 48.3811C0.211297 50.1473 0.154212 46.6547 0.154212 48.3811Z" fill="#034677"/>
</svg>
