<svg width="167" height="47" viewBox="0 0 167 47" fill="none" xmlns="http://www.w3.org/2000/svg">
<path d="M103.854 8.73131C85.6155 6.04747 64.3479 8.92071 47.2029 15.5497C37.4804 19.3087 28.5103 24.8975 20.1176 31.0356C15.7715 34.2142 11.6118 37.5646 7.60329 41.157C6.43938 42.2 2.4871 47.4654 0.948881 46.9668C-4.22582 45.2894 13.3575 29.5558 15.3719 27.9975C23.8898 21.4086 32.8597 15.1448 42.7678 10.8422C59.3882 3.62491 79.2081 -1.04626 97.378 0.201386C107.958 0.927813 118.569 1.54513 128.878 4.60812C133.213 5.89628 137.439 7.58608 141.457 9.66537C144.3 11.1365 147.174 12.7121 149.81 14.535C151.762 15.8847 153.578 18.619 155.639 19.573C155.861 15.5408 152.44 11.1882 152.359 6.99637C152.262 2.0121 155.815 4.16936 157.491 7.0269C160.159 11.5746 162.042 16.5282 164.144 21.3484C165.935 25.4562 169.217 30.2743 164.775 33.486C160.874 36.3061 155.755 37.6732 151.404 39.5871C148.494 40.8669 142.824 45.1544 139.556 43.2297C129.342 37.2148 154.647 31.621 156.206 30.483C154.883 29.1556 152.799 28.4009 151.246 27.3005C148.999 25.7091 147.005 23.8127 144.75 22.2299C140.497 19.2455 135.78 16.64 131.022 14.5581C122.771 10.9473 112.846 8.80113 103.854 8.73131C105.154 8.7414 97.2557 7.76039 103.854 8.73131Z" fill="#034677"/>
</svg>
