<svg width="133" height="69" viewBox="0 0 133 69" fill="none" xmlns="http://www.w3.org/2000/svg">
<path d="M1.01649 31.9127C0.799101 30.4721 0.0290069 28.8382 0.454372 27.622C3.15261 19.9082 5.75984 12.1267 9.1156 4.69092C11.3427 -0.243539 14.896 -0.620868 18.6181 3.13627C24.1768 8.74719 29.4713 14.6181 34.8551 20.3538C29.7473 23.2595 26.4831 22.025 16.783 12.9997C16.7614 15.0208 16.535 16.4512 16.763 17.8069C20.2929 38.7947 41.4032 63.9902 71.5797 62.1073C84.1143 61.3252 96.3791 59.6448 107.961 54.6083C115.794 51.202 122.935 46.7989 128.284 39.9197C129.035 38.954 130.334 38.4124 131.65 37.4837C134.126 42.3877 132.196 45.9125 129.166 48.5297C125.11 52.0325 120.805 55.469 116.082 57.9443C97.622 67.6214 77.7988 70.7083 57.2566 67.6204C36.6557 64.5236 17.3111 44.2429 13.6176 22.8948C13.1129 19.9775 12.7743 17.0321 12.2167 13.0975C7.14943 19.2478 7.79967 27.2378 2.89709 32.2597C2.27033 32.144 1.64343 32.0283 1.01649 31.9127Z" fill="#034677"/>
</svg>
