<svg width="162" height="108" viewBox="0 0 162 108" fill="none" xmlns="http://www.w3.org/2000/svg">
<path d="M160.179 19.2382C160.771 20.7799 162.702 23.8321 161.55 25.3549C159.994 27.4111 158.247 25.2693 157.116 23.9037C154.892 21.2184 153.401 15.89 150.544 14.1046C146.48 40.6377 133.683 64.2313 113.244 81.6864C92.9157 99.0477 64.7106 111.725 37.4346 106.895C24.0845 104.531 11.4537 98.5424 3.24666 87.3125C2.54242 86.3489 -1.15933 81.7467 1.1827 81.0936C2.40362 80.7531 7.09891 86.7084 8.10257 87.6408C13.3196 92.4888 19.0818 96.1545 25.7144 98.6982C48.3143 107.365 74.4312 100.838 94.2651 88.6315C107.404 80.5455 119.016 69.3293 127.793 56.5598C132.323 49.9688 136.317 42.8026 139.114 35.282C141.473 28.9387 145.598 18.5965 144.407 11.7021C139.118 14.7034 136.582 22.9867 131.746 26.7644C129.184 28.7659 125.313 28.6188 126.065 24.5487C126.674 21.2491 131.3 17.5347 133.422 15.0755C135.79 12.3314 138.233 9.67987 140.847 7.1701C142.765 5.32907 146.111 0.579213 148.92 0.62451C153.888 0.704586 158.535 15.3351 160.179 19.2382C159.493 17.6098 160.798 20.85 160.179 19.2382Z" fill="#034677"/>
</svg>
