<svg width="259" height="167" viewBox="0 0 259 167" fill="none" xmlns="http://www.w3.org/2000/svg">
<path d="M174.426 68.4028C206.16 86.7229 203.22 125.299 172.379 140.923C140.645 159.243 89.1939 159.243 57.4598 140.923C25.0566 123.223 23.6393 87.1383 55.3734 68.8182C87.1075 50.4981 142.692 50.0827 174.426 68.4028Z" fill="#2574D5"/>
<circle cx="66.3473" cy="66.3473" r="65.8473" transform="matrix(0.866044 -0.499968 0.866044 0.499968 0 99.998)" fill="#4A91E5" stroke="url(#paint0_linear_133_207)"/>
<g filter="url(#filter0_b_133_207)">
<path d="M201.313 106.82L201.3 106.826L201.289 106.833C185.515 115.939 164.811 120.506 144.079 120.506C123.347 120.506 102.642 115.939 86.8693 106.833L86.8693 106.833L86.859 106.827C70.7803 98.0439 62.4554 84.7422 62.0243 71.4296C61.5933 58.1222 69.0458 44.679 84.7828 35.594C100.553 26.4899 122.29 21.8168 144.061 21.7132C165.833 21.6096 187.568 26.0761 203.335 35.1786C219.055 44.2537 226.142 58.3099 225.528 71.9943C224.913 85.6857 216.586 99.082 201.313 106.82Z" fill="white" fill-opacity="0.5" stroke="url(#paint1_linear_133_207)"/>
</g>
<g filter="url(#filter1_b_133_207)">
<circle cx="66.3473" cy="66.3473" r="65.8473" transform="matrix(0.866044 -0.499968 0.866044 0.499968 29.1614 66.3428)" fill="white" fill-opacity="0.5" stroke="url(#paint2_linear_133_207)"/>
</g>
<path d="M176.832 64.7439C176.605 64.9573 176.335 65.1897 175.913 65.2385C175.528 65.2831 175.141 65.1601 174.796 65.0403C171.318 63.832 167.991 62.236 164.161 61.4593C163.154 61.255 162.02 61.1193 161.069 61.3753C160.039 61.6527 159.477 62.3427 159.428 63.017C159.379 63.6908 159.757 64.3562 160.179 64.9915C161.912 67.6019 164.434 70.0094 166.844 72.4237C167.448 73.0287 168.046 73.6268 168.62 74.2447C168.92 74.569 169.221 74.8932 169.522 75.2175C169.673 75.3797 169.823 75.5418 169.974 75.704C170.092 75.8319 170.203 76.0276 170.372 76.1334C170.82 76.6168 171.27 77.1019 171.591 77.6178C171.723 77.8308 171.835 78.0552 171.794 78.2782C171.708 78.7463 170.938 79.0844 170.144 79.135C169.35 79.1852 168.552 79.0057 167.84 78.7754C166.2 78.2446 164.583 77.6797 162.998 77.0905C158.411 75.3995 153.817 73.6916 149.256 71.9662C148.273 71.5945 147.267 71.2141 146.138 71.0576C145.009 70.9015 143.713 71.0129 142.955 71.5113C142.352 71.9081 142.183 72.4792 142.215 73.0196C142.332 74.9972 144.648 76.6087 146.488 78.1748C148.63 79.9968 150.653 81.8768 152.256 83.8805C152.382 84.0373 152.507 84.2035 152.492 84.3745C152.457 84.7559 151.767 84.9768 151.146 85.0768C149.63 85.3198 148.025 85.2683 146.46 85.212C138.021 84.908 129.444 84.4299 121.374 82.7203C117.274 81.8523 113.125 80.7162 109.663 79.1308C106.302 77.5907 103.463 75.6367 101.586 73.3843C100.749 72.3789 100.106 71.3205 99.6782 70.2352C98.4019 66.998 99.0904 63.5214 102.114 60.7534C104.818 58.2775 109.224 56.4838 114.14 55.8565C115.62 55.6678 117.201 55.566 118.421 55.0489C119.641 54.5319 120.277 53.4065 119.254 52.7238C118.514 52.2307 117.27 52.1716 116.172 52.1958C108.411 52.3663 101.127 54.9779 97.039 58.808C92.9508 62.6381 92.0261 67.5677 94.1825 72.009C95.507 74.7361 97.9444 77.291 101.226 79.393C107.118 83.1658 115.311 85.2775 123.462 86.6689C130.148 87.8103 137.019 88.4093 143.917 88.6857C143.917 88.6857 151.513 89.1424 153.759 88.8716C154.35 88.8003 154.921 88.6681 155.449 88.5032C160.187 87.0273 158.72 83.6906 156.541 81.3528C155.395 80.1235 153.91 79.0379 152.468 77.9252C152.292 77.7893 152.111 77.6477 152.106 77.4697C152.103 77.3995 152.138 77.3295 152.214 77.2767C152.436 77.1209 152.8 77.1895 153.081 77.2669C153.53 77.3903 153.957 77.5383 154.37 77.7001C157.912 79.0867 161.505 80.4126 165.067 81.7779C167.974 82.8686 171.267 83.2974 174.346 82.1389C176.441 81.3501 177.796 79.9319 177.871 78.4493C177.962 76.6575 176.327 74.9827 174.747 73.4221C172.992 71.6902 171.239 69.958 169.494 68.2229C169.319 68.0494 169.319 67.8297 169.521 67.6738C169.765 67.4856 170.129 67.5332 170.437 67.6024C171.897 67.9284 173.005 68.6548 174.505 68.9301C175.84 69.1754 177.264 68.833 178.272 68.3309C179.274 67.8308 179.982 67.1605 180.674 66.5018C181.149 66.049 181.624 65.5963 182.1 65.1431C182.936 64.3458 183.773 63.5484 184.609 62.7515L192.412 55.6387C192.775 55.2938 192.852 54.8669 192.623 54.4744C191.976 53.365 189.454 53.16 188.421 54.1322L176.831 64.7447L176.832 64.7439Z" fill="#1F416B"/>
<path d="M143.912 35.3699C136.021 37.3893 130.957 41.6595 129.796 46.6685C129.633 47.3693 129.544 48.078 129.529 48.7879C129.483 50.8429 129.977 52.9168 130.981 54.9031C131.349 55.6306 131.787 56.3476 132.301 57.0464C132.263 57.0673 132.224 57.0859 132.185 57.1071C128.765 59.0032 128.68 62.2322 131.997 64.3052C135.314 66.3782 140.795 66.5217 144.217 64.6252C147.638 62.7287 147.723 59.5001 144.405 57.4271C142.621 56.3123 140.211 55.7566 137.832 55.7751C136.483 53.3253 135.439 50.8022 135.632 48.2328C135.87 45.0557 138.18 42.0201 142.389 40.0561C146.011 38.3654 150.807 37.549 155.49 37.6331C163.532 37.7779 171.012 40.6692 175.316 44.6648C179.16 48.2344 181.782 53.2078 182.433 57.4446C182.478 57.7395 183.131 57.8426 183.398 57.5968L187.418 53.9095C187.526 53.8101 187.568 53.6898 187.535 53.5713C186.313 49.3709 182.715 44.5156 178.289 41.0796L176.85 40.0828C168.291 34.7222 155.201 32.4809 143.913 35.37L143.912 35.3699ZM141.429 62.8829C139.593 63.9004 136.651 63.8233 134.871 62.7112C133.091 61.5991 133.137 59.866 134.972 58.8485C136.808 57.8311 139.75 57.9081 141.53 59.0202C143.31 60.1324 143.264 61.8654 141.429 62.8829Z" fill="#1F416B"/>
<path d="M134.97 58.8489C133.135 59.8663 133.089 61.5994 134.869 62.7115C136.649 63.8237 139.591 63.9007 141.427 62.8832C143.262 61.8658 143.307 60.1327 141.528 59.0206C139.748 57.9084 136.806 57.8314 134.97 58.8489Z" fill="#4A91E5"/>
<path d="M145.214 65.7517C141.178 67.9892 134.71 67.8198 130.797 65.3742C130.334 65.0854 130.346 64.6376 130.823 64.3735C131.299 64.1093 132.06 64.1292 132.522 64.4179C135.513 66.2874 140.457 66.4165 143.542 64.7065C144.018 64.4424 144.778 64.4623 145.241 64.751C145.703 65.0398 145.691 65.4876 145.214 65.7517Z" fill="#4A91E5"/>
<path d="M185.848 63.275C184.137 64.9054 183.074 66.75 182.731 68.6758C181.697 74.4873 180.401 81.0701 179.504 83.6711C179.449 83.8313 179.383 84.0027 179.179 84.1115C178.966 84.2244 178.657 84.2428 178.368 84.2553C174.783 84.4159 171.194 84.5476 167.606 84.6889C165.785 84.7605 163.966 84.8317 162.146 84.9033C161.709 84.9206 161.272 84.9378 160.836 84.955C160.246 84.978 160.108 84.9188 160.091 85.2707C160.105 85.723 160.029 86.1508 159.868 86.551C159.867 86.5531 159.866 86.5552 159.865 86.5574C159.864 86.5625 159.861 86.5675 159.859 86.5726C159.842 86.6141 159.824 86.6555 159.804 86.6964C159.803 86.6998 159.801 86.7023 159.8 86.7057C159.483 87.379 158.913 87.9687 158.099 88.457C158.091 88.4611 158.084 88.466 158.077 88.4701C158.02 88.5041 157.962 88.5368 157.904 88.5695C157.839 88.6054 157.772 88.6405 157.706 88.675C157.704 88.6759 157.703 88.6767 157.701 88.6775C157.636 88.7113 157.568 88.7446 157.5 88.7774C157.5 88.7774 157.499 88.7778 157.498 88.7782C162.104 88.6453 166.713 88.5278 171.31 88.3296C173.514 88.2343 175.718 88.1235 177.911 87.9641C179.453 87.8519 181.095 87.8568 182.544 87.5065C184.158 87.1169 184.703 86.3367 185.076 85.3746C186.711 81.1532 189.231 65.8315 190.163 61.5225C190.231 61.2095 190.309 60.6758 190.375 60.0683C190.406 59.7971 189.801 59.6701 189.553 59.8958L185.888 63.2371L185.85 63.2733L185.848 63.275Z" fill="#1F416B"/>
<path d="M139.824 34.8735C139.725 34.9308 147.109 31.1263 158.713 32.2896C159.909 32.4094 160.23 31.3763 159.049 31.2098C153.551 30.436 146.723 30.8733 139.824 34.8735Z" fill="#4A91E5"/>
<path d="M101.388 69.1292C101.388 69.1292 102.44 74.0935 109.981 77.792C110.882 78.2342 111.988 77.476 111.127 77.0066C107.437 74.9931 103.449 72.2749 101.388 69.1292Z" fill="#4A91E5"/>
<defs>
<filter id="filter0_b_133_207" x="-68.2147" y="-108.51" width="424.001" height="359.237" filterUnits="userSpaceOnUse" color-interpolation-filters="sRGB">
<feFlood flood-opacity="0" result="BackgroundImageFix"/>
<feGaussianBlur in="BackgroundImageFix" stdDeviation="64.8607"/>
<feComposite in2="SourceAlpha" operator="in" result="effect1_backgroundBlur_133_207"/>
<feBlend mode="normal" in="SourceGraphic" in2="effect1_backgroundBlur_133_207" result="shape"/>
</filter>
<filter id="filter1_b_133_207" x="-66.9008" y="-110.29" width="421.963" height="353.266" filterUnits="userSpaceOnUse" color-interpolation-filters="sRGB">
<feFlood flood-opacity="0" result="BackgroundImageFix"/>
<feGaussianBlur in="BackgroundImageFix" stdDeviation="64.8607"/>
<feComposite in2="SourceAlpha" operator="in" result="effect1_backgroundBlur_133_207"/>
<feBlend mode="normal" in="SourceGraphic" in2="effect1_backgroundBlur_133_207" result="shape"/>
</filter>
<linearGradient id="paint0_linear_133_207" x1="11.4976" y1="53.9744" x2="69.7531" y2="108.612" gradientUnits="userSpaceOnUse">
<stop stop-color="white" stop-opacity="0.23"/>
<stop offset="0.846595" stop-color="white" stop-opacity="0.44"/>
<stop offset="1" stop-color="white" stop-opacity="0"/>
</linearGradient>
<linearGradient id="paint1_linear_133_207" x1="75.765" y1="61.8035" x2="115.8" y2="123.721" gradientUnits="userSpaceOnUse">
<stop stop-color="white" stop-opacity="0"/>
<stop offset="0.846595" stop-color="white" stop-opacity="0.06"/>
<stop offset="1" stop-color="white" stop-opacity="0.23"/>
</linearGradient>
<linearGradient id="paint2_linear_133_207" x1="11.4976" y1="53.9744" x2="69.7531" y2="108.612" gradientUnits="userSpaceOnUse">
<stop stop-color="white" stop-opacity="0.43"/>
<stop offset="0.846595" stop-color="white" stop-opacity="0.44"/>
<stop offset="1" stop-color="white" stop-opacity="0"/>
</linearGradient>
</defs>
</svg>
