<svg width="180" height="52" viewBox="0 0 180 52" fill="none" xmlns="http://www.w3.org/2000/svg">
<path d="M173.333 52H6.66667C3.00167 52 0 49.0734 0 45.5V6.5C0 2.92663 3.00167 2.74817e-06 6.66667 2.74817e-06H173.333C176.998 2.74817e-06 180 2.92663 180 6.5V45.5C180 49.0734 176.998 52 173.333 52Z" fill="black"/>
<path d="M173.333 1.04162C176.42 1.04162 178.932 3.4905 178.932 6.5V45.5C178.932 48.5095 176.42 50.9584 173.333 50.9584H6.66667C3.58 50.9584 1.06833 48.5095 1.06833 45.5V6.5C1.06833 3.4905 3.58 1.04162 6.66667 1.04162H173.333ZM173.333 2.74817e-06H6.66667C3.00167 2.74817e-06 0 2.92663 0 6.5V45.5C0 49.0734 3.00167 52 6.66667 52H173.333C176.998 52 180 49.0734 180 45.5V6.5C180 2.92663 176.998 2.74817e-06 173.333 2.74817e-06Z" fill="#A6A6A6"/>
<path d="M12.9133 9.80044C12.5216 10.2002 12.2949 10.8226 12.2949 11.6286V40.3781C12.2949 41.1841 12.5216 41.8064 12.9133 42.2062L13.0099 42.2939L29.5332 26.1902V25.8099L13.0099 9.7062L12.9133 9.80044Z" fill="white"/>
<path d="M37.0349 31.5605L31.5332 26.1899V25.8097L37.0415 20.439L37.1649 20.5089L43.6882 24.1278C45.5499 25.1548 45.5499 26.8448 43.6882 27.8783L37.1649 31.4907L37.0349 31.5605Z" fill="white"/>
<path d="M36.165 32.4907L30.5333 26.9998L13.9133 43.206C14.5317 43.8397 15.54 43.9161 16.6867 43.2823L36.165 32.4907Z" fill="white"/>
<path d="M36.165 19.5091L16.6867 8.71751C15.54 8.09025 14.5317 8.16663 13.9133 8.80038L30.5333 25L36.165 19.5091Z" fill="white"/>
<path d="M63.2234 13.3172C63.2234 14.4027 62.8901 15.2721 62.2334 15.9204C61.4784 16.6891 60.4951 17.0758 59.2901 17.0758C58.1384 17.0758 57.155 16.6826 56.3484 15.9074C55.54 15.1209 55.1367 14.1557 55.1367 13.0003C55.1367 11.8449 55.54 10.8797 56.3484 10.0997C57.155 9.31806 58.1384 8.9248 59.2901 8.9248C59.8634 8.9248 60.41 9.04018 60.9317 9.25468C61.4517 9.4708 61.875 9.7633 62.1817 10.1241L61.4851 10.8098C60.95 10.1939 60.2217 9.89006 59.2901 9.89006C58.4501 9.89006 57.7217 10.1761 57.1034 10.7529C56.4917 11.3314 56.185 12.0806 56.185 13.0003C56.185 13.9201 56.4917 14.6757 57.1034 15.2542C57.7217 15.8246 58.4501 16.1171 59.2901 16.1171C60.1817 16.1171 60.9317 15.8246 61.5234 15.2477C61.9134 14.8658 62.1351 14.3393 62.1934 13.6666H59.2901V12.7273H63.1634C63.2101 12.9304 63.2234 13.1271 63.2234 13.3172Z" fill="white" stroke="white" stroke-width="0.16" stroke-miterlimit="10"/>
<path d="M69.3683 10.0606H65.73V12.5306H69.01V13.4699H65.73V15.9399H69.3683V16.897H64.7V9.10352H69.3683V10.0606Z" fill="white" stroke="white" stroke-width="0.16" stroke-miterlimit="10"/>
<path d="M73.705 16.897H72.675V10.0606H70.4434V9.10352H75.9384V10.0606H73.705V16.897Z" fill="white" stroke="white" stroke-width="0.16" stroke-miterlimit="10"/>
<path d="M79.915 16.897V9.10352H80.9434V16.897H79.915Z" fill="white" stroke="white" stroke-width="0.16" stroke-miterlimit="10"/>
<path d="M85.5016 16.897H84.48V10.0606H82.24V9.10352H87.7416V10.0606H85.5016V16.897Z" fill="white" stroke="white" stroke-width="0.16" stroke-miterlimit="10"/>
<path d="M98.1451 15.8944C97.3568 16.6826 96.3801 17.0758 95.2151 17.0758C94.0434 17.0758 93.0668 16.6826 92.2784 15.8944C91.4918 15.1079 91.1001 14.1427 91.1001 13.0003C91.1001 11.8579 91.4918 10.8927 92.2784 10.1062C93.0668 9.31805 94.0434 8.9248 95.2151 8.9248C96.3734 8.9248 97.3501 9.31805 98.1384 10.1127C98.9318 10.9057 99.3234 11.8644 99.3234 13.0003C99.3234 14.1427 98.9318 15.1079 98.1451 15.8944ZM93.0401 15.2412C93.6334 15.8246 94.3551 16.1171 95.2151 16.1171C96.0684 16.1171 96.7968 15.8246 97.3834 15.2412C97.9751 14.6578 98.2751 13.9087 98.2751 13.0003C98.2751 12.0919 97.9751 11.3428 97.3834 10.7594C96.7968 10.1761 96.0684 9.88355 95.2151 9.88355C94.3551 9.88355 93.6334 10.1761 93.0401 10.7594C92.4484 11.3428 92.1484 12.0919 92.1484 13.0003C92.1484 13.9087 92.4484 14.6578 93.0401 15.2412Z" fill="white" stroke="white" stroke-width="0.16" stroke-miterlimit="10"/>
<path d="M100.768 16.897V9.10352H102.018L105.905 15.1648H105.95L105.905 13.6665V9.10352H106.933V16.897H105.86L101.79 10.5368H101.745L101.79 12.0415V16.897H100.768Z" fill="white" stroke="white" stroke-width="0.16" stroke-miterlimit="10"/>
<path d="M90.8466 28.2783C87.715 28.2783 85.1566 30.602 85.1566 33.8082C85.1566 36.9883 87.715 39.3364 90.8466 39.3364C93.985 39.3364 96.5433 36.9883 96.5433 33.8082C96.5433 30.602 93.985 28.2783 90.8466 28.2783ZM90.8466 37.1589C89.1283 37.1589 87.65 35.776 87.65 33.8082C87.65 31.8143 89.1283 30.4558 90.8466 30.4558C92.565 30.4558 94.05 31.8143 94.05 33.8082C94.05 35.776 92.565 37.1589 90.8466 37.1589ZM78.4316 28.2783C75.2933 28.2783 72.7416 30.602 72.7416 33.8082C72.7416 36.9883 75.2933 39.3364 78.4316 39.3364C81.5683 39.3364 84.1216 36.9883 84.1216 33.8082C84.1216 30.602 81.5683 28.2783 78.4316 28.2783ZM78.4316 37.1589C76.7116 37.1589 75.2283 35.776 75.2283 33.8082C75.2283 31.8143 76.7116 30.4558 78.4316 30.4558C80.15 30.4558 81.6283 31.8143 81.6283 33.8082C81.6283 35.776 80.15 37.1589 78.4316 37.1589ZM63.6583 29.9732V32.3229H69.4133C69.245 33.6359 68.795 34.6012 68.105 35.2739C67.265 36.0864 65.9566 36.9883 63.6583 36.9883C60.1166 36.9883 57.3433 34.2014 57.3433 30.7483C57.3433 27.2952 60.1166 24.5083 63.6583 24.5083C65.5733 24.5083 66.9666 25.2379 67.995 26.1837L69.6933 24.5278C68.255 23.1888 66.3416 22.1602 63.6583 22.1602C58.8016 22.1602 54.72 26.013 54.72 30.7483C54.72 35.4835 58.8016 39.3364 63.6583 39.3364C66.2833 39.3364 68.255 38.4979 69.805 36.9249C71.3933 35.3763 71.8883 33.1988 71.8883 31.4405C71.8883 30.8945 71.8416 30.3924 71.7583 29.9732H63.6583ZM124.068 31.7948C123.6 30.5582 122.155 28.2783 119.212 28.2783C116.295 28.2783 113.867 30.5192 113.867 33.8082C113.867 36.9054 116.27 39.3364 119.492 39.3364C122.097 39.3364 123.6 37.7878 124.218 36.8859L122.285 35.6298C121.64 36.5495 120.762 37.1589 119.492 37.1589C118.23 37.1589 117.325 36.595 116.745 35.4835L124.33 32.4237L124.068 31.7948ZM116.335 33.6359C116.27 31.5039 118.033 30.4119 119.297 30.4119C120.287 30.4119 121.127 30.8945 121.407 31.5852L116.335 33.6359ZM110.17 39H112.663V22.75H110.17V39ZM106.087 29.51H106.003C105.443 28.8633 104.375 28.2783 103.022 28.2783C100.182 28.2783 97.585 30.7093 97.585 33.826C97.585 36.9249 100.182 39.3364 103.022 39.3364C104.375 39.3364 105.443 38.7465 106.003 38.0803H106.087V38.8733C106.087 40.9874 104.928 42.1233 103.06 42.1233C101.537 42.1233 100.592 41.0508 100.202 40.1489L98.0333 41.0313C98.6583 42.497 100.313 44.3008 103.06 44.3008C105.983 44.3008 108.45 42.6238 108.45 38.5434V28.6147H106.087V29.51ZM103.235 37.1589C101.517 37.1589 100.078 35.7565 100.078 33.826C100.078 31.8777 101.517 30.4558 103.235 30.4558C104.928 30.4558 106.263 31.8777 106.263 33.826C106.263 35.7565 104.928 37.1589 103.235 37.1589ZM135.742 22.75H129.778V39H132.265V32.8429H135.742C138.503 32.8429 141.212 30.8945 141.212 27.7957C141.212 24.6984 138.497 22.75 135.742 22.75ZM135.807 30.5825H132.265V25.0104H135.807C137.663 25.0104 138.723 26.5135 138.723 27.7957C138.723 29.0534 137.663 30.5825 135.807 30.5825ZM151.178 28.2474C149.382 28.2474 147.513 29.0209 146.745 30.7353L148.952 31.6372C149.427 30.7353 150.3 30.4428 151.223 30.4428C152.513 30.4428 153.822 31.1984 153.842 32.5325V32.7032C153.392 32.4497 152.428 32.0743 151.243 32.0743C148.867 32.0743 146.445 33.3499 146.445 35.7305C146.445 37.908 148.392 39.3104 150.58 39.3104C152.253 39.3104 153.177 38.5743 153.757 37.7179H153.842V38.974H156.243V32.7405C156.243 29.8594 154.037 28.2474 151.178 28.2474ZM150.878 37.1524C150.065 37.1524 148.932 36.7592 148.932 35.776C148.932 34.5183 150.345 34.0357 151.568 34.0357C152.663 34.0357 153.177 34.2713 153.842 34.5817C153.647 36.0864 152.318 37.1524 150.878 37.1524ZM164.993 28.6033L162.135 35.6477H162.05L159.095 28.6033H156.413L160.853 38.4475L158.32 43.9254H160.918L167.76 28.6033H164.993ZM142.578 39H145.072V22.75H142.578V39Z" fill="white"/>
</svg>
