<svg width="56" height="56" viewBox="0 0 56 56" fill="none" xmlns="http://www.w3.org/2000/svg">
<rect width="55.42" height="55.42" rx="11" fill="white"/>
<path d="M36.2618 34.0707C36.1052 34.1106 35.9287 34.1478 35.7907 34.0638C35.6653 33.987 35.6132 33.8338 35.571 33.6927C35.1459 32.2681 34.9334 30.7054 34.2212 29.388C34.0338 29.0413 33.7817 28.6945 33.4072 28.5713C33.0011 28.4375 32.543 28.6097 32.2324 28.9036C31.9221 29.1975 31.7331 29.5948 31.5693 29.9895C30.8963 31.6115 30.5302 33.3403 30.1298 35.044C30.0294 35.471 29.931 35.8934 29.8165 36.3181C29.7564 36.5412 29.6964 36.7641 29.6363 36.9872C29.6063 37.0986 29.5762 37.2104 29.5462 37.3218C29.5226 37.4096 29.4667 37.5264 29.4667 37.6169C29.3774 37.9492 29.2873 38.283 29.1485 38.5982C29.0911 38.7282 29.023 38.8582 28.9135 38.9491C28.6835 39.14 28.3227 39.0997 28.082 38.9225C27.8413 38.7453 27.701 38.4628 27.6067 38.1792C27.3893 37.5248 27.1931 36.861 27.0159 36.1941C26.4981 34.271 25.9859 32.338 25.4905 30.4062C25.3837 29.9899 25.2745 29.5637 25.0327 29.2086C24.7909 28.8534 24.3852 28.5778 23.9567 28.6132C23.6161 28.6417 23.318 28.8584 23.0887 29.112C22.25 30.0397 22.1774 31.3552 21.9941 32.5297C21.7812 33.8969 21.5097 35.2599 21.0683 36.5736C21.0337 36.6766 20.9953 36.7838 20.9155 36.8576C20.7379 37.0222 20.4505 36.9488 20.2357 36.8374C19.7113 36.5663 19.2924 36.1386 18.8863 35.7189C16.6974 33.4562 14.5474 31.0792 13.0794 28.2706C12.3334 26.8437 11.6916 25.2829 11.4376 23.6914C11.1909 22.1454 11.27 20.5429 11.7456 19.0471C11.9578 18.3795 12.2475 17.7369 12.6075 17.1362C13.682 15.3443 15.4028 13.9383 17.4544 13.4421C19.2893 12.9984 21.2919 13.293 22.9214 14.2458C23.4119 14.5325 23.8921 14.8846 24.4556 14.9572C25.019 15.0298 25.6897 14.6785 25.7091 14.1105C25.7228 13.7006 25.4065 13.3603 25.0936 13.095C22.8823 11.2183 19.7273 10.5708 16.9153 11.281C14.1033 11.9916 11.6772 13.998 10.3145 16.5587C9.47766 18.1312 9.02331 19.9052 9.00088 21.6865C8.96096 24.8841 10.2856 27.9063 11.9163 30.5906C13.2539 32.7928 14.8812 34.795 16.6579 36.6572C16.6579 36.6572 18.5475 38.7773 19.2851 39.2198C19.479 39.3362 19.6946 39.4198 19.9125 39.4784C21.8664 40.0008 22.9325 38.1157 23.3625 36.5047C23.5883 35.658 23.6583 34.7908 23.7511 33.9224C23.7625 33.8167 23.775 33.7064 23.8518 33.6243C23.8822 33.592 23.9225 33.5688 23.9663 33.5638C24.0959 33.549 24.1662 33.6718 24.2092 33.7775C24.2784 33.9463 24.3309 34.1216 24.3735 34.2992C24.7377 35.8211 25.1422 37.3279 25.5217 38.8453C25.8411 40.0726 26.5589 41.0969 27.9166 41.3456C28.8405 41.5148 29.8382 41.2117 30.5119 40.557C31.3259 39.7658 31.6138 38.5936 31.8662 37.4864C32.1461 36.258 32.4266 35.0295 32.7107 33.8018C32.7392 33.679 32.8357 33.579 32.9601 33.5593C33.1103 33.5349 33.1893 33.6486 33.2437 33.7574C33.5019 34.2733 33.487 34.882 33.7787 35.3847C34.0383 35.8322 34.5809 36.0356 35.0794 36.061C35.5755 36.0865 36.0656 35.9603 36.5462 35.8352C36.8766 35.7493 37.2066 35.6633 37.537 35.577C38.1184 35.4257 38.6997 35.274 39.2814 35.1227L44.5618 33.8566C44.8134 33.7912 45.0226 33.6167 45.1324 33.381C45.4431 32.7141 44.8397 31.9864 44.1268 32.1677L36.2626 34.0699L36.2618 34.0707Z" fill="#4A91E5"/>
<path d="M40.1391 12.438C37.0777 11.3685 33.8037 12.0334 31.2776 14.0162C30.924 14.2938 30.5875 14.593 30.2704 14.9116C29.3526 15.8336 28.5755 16.9001 27.9766 18.0548C27.7573 18.478 27.5622 18.9141 27.3957 19.3608C27.3763 19.3608 27.3569 19.3593 27.3371 19.3593C25.5604 19.3593 24.1149 20.8049 24.1149 22.5816C24.1149 24.3583 25.5604 25.8038 27.3371 25.8038C29.1138 25.8038 30.5594 24.3583 30.5594 22.5816C30.5594 21.6261 30.1408 20.7665 29.4777 20.176C30.1853 18.7232 31.0096 17.3142 32.1943 16.1956C33.6592 14.812 35.6318 14.0151 37.6552 14.1824C39.397 14.3265 41.0767 15.1633 42.328 16.3807C44.4777 18.4715 45.2632 21.6683 44.6876 24.5674C44.1735 27.157 42.7044 30.0763 41.0174 32.1647C40.8999 32.31 41.0341 32.521 41.2159 32.4769L43.9465 31.8142C44.0199 31.7963 44.0846 31.7522 44.1275 31.6899C45.6415 29.474 46.7897 26.3624 47.0852 23.6872L47.1277 22.8721C47.1331 18.2818 44.5176 13.9676 40.1384 12.4376L40.1391 12.438ZM27.3375 24.3111C26.384 24.3111 25.6083 23.5355 25.6083 22.582C25.6083 21.6284 26.384 20.8528 27.3375 20.8528C28.2911 20.8528 29.0667 21.6284 29.0667 22.582C29.0667 23.5355 28.2911 24.3111 27.3375 24.3111Z" fill="#4A91E5"/>
<path d="M27.3376 20.8524C26.384 20.8524 25.6084 21.628 25.6084 22.5816C25.6084 23.5352 26.384 24.3108 27.3376 24.3108C28.2912 24.3108 29.0668 23.5352 29.0668 22.5816C29.0668 21.628 28.2912 20.8524 27.3376 20.8524Z" fill="#223667"/>
<path d="M27.1163 26.5666C25.0198 26.5666 23.3146 24.861 23.3146 22.7649C23.3146 22.5174 23.5149 22.317 23.7625 22.317C24.01 22.317 24.2103 22.5174 24.2103 22.7649C24.2103 24.3675 25.5141 25.6708 27.1163 25.6708C27.3638 25.6708 27.5642 25.8712 27.5642 26.1187C27.5642 26.3662 27.3638 26.5666 27.1163 26.5666Z" fill="#1F416B"/>
<path d="M39.3901 35.6737C38.2008 35.9836 37.0956 36.5535 36.1534 37.3421C33.3091 39.7218 30.053 42.3855 28.6603 43.3414C28.5744 43.4003 28.4808 43.4615 28.377 43.4596C28.269 43.4573 28.1755 43.3878 28.0903 43.3208C27.033 42.4912 25.987 41.6472 24.9373 40.8077C24.405 40.3818 23.8723 39.956 23.34 39.5306C23.2123 39.4283 23.0845 39.3264 22.9568 39.2241C22.7842 39.0861 22.7724 39.0245 22.6127 39.18C22.4173 39.3887 22.2081 39.564 21.9872 39.7051C21.9861 39.7058 21.985 39.7066 21.9838 39.7073C21.9812 39.7092 21.9781 39.7108 21.9755 39.7127C21.9523 39.7271 21.9291 39.7416 21.9059 39.7553C21.904 39.7564 21.9025 39.7575 21.9006 39.7583C21.5169 39.9841 21.1002 40.1088 20.6611 40.1256C20.6573 40.1256 20.6531 40.126 20.6493 40.126C20.6189 40.1271 20.5885 40.1275 20.5577 40.1275C20.5242 40.1275 20.4904 40.1267 20.4565 40.1256C20.4558 40.1256 20.455 40.1256 20.4542 40.1256C20.4212 40.1244 20.3881 40.1225 20.355 40.1203C20.355 40.1203 20.3546 40.1203 20.3542 40.1203C21.6804 41.2198 23.0009 42.327 24.3533 43.3942C25.0019 43.9064 25.6574 44.4109 26.3311 44.8903C26.8052 45.228 27.2546 45.6432 27.8079 45.8488C28.4238 46.0781 28.9173 45.861 29.4435 45.5181C31.7533 44.0121 39.1951 37.6865 41.3497 35.9638C41.5064 35.8387 41.763 35.6159 42.0489 35.3566C42.1767 35.241 42.066 35.0312 41.8988 35.0715L39.4183 35.6661L39.3917 35.673L39.3901 35.6737Z" fill="#4A91E5"/>
<path d="M39.2327 11.1833C39.1803 11.1844 42.8884 11.3156 45.57 14.766C45.8461 15.1211 46.3902 14.7329 46.1381 14.3603C44.9655 12.6243 42.8938 11.1038 39.2327 11.1837V11.1833Z" fill="#1F416B"/>
<path d="M13.566 17.0663C13.566 17.0663 11.6688 19.5863 12.1151 23.1652C12.1683 23.5926 12.8067 23.5272 12.7767 23.0971C12.6474 21.2531 12.7474 19.0141 13.566 17.0663Z" fill="#1F416B"/>
</svg>
