<svg width="355" height="108" viewBox="0 0 355 108" fill="none" xmlns="http://www.w3.org/2000/svg">
<g filter="url(#filter0_d_1_429)">
<path d="M58.7258 75.0754C58.7258 61.2441 70.0913 50.0127 84.0617 50.0127C94.8127 50.0127 103.92 56.9979 107.344 66.7195H101.798C98.7175 59.7343 91.9372 54.9418 84.0643 54.9418C73.1085 54.9418 64.2063 63.9805 64.2063 75.0729C64.2063 86.1652 73.1085 95.204 84.0643 95.204C91.9397 95.204 98.7175 90.3432 101.798 83.4263H107.412C103.988 93.1504 94.8127 100.133 84.0617 100.133C70.0939 100.133 58.7258 88.9041 58.7258 75.0703V75.0754Z" fill="white"/>
<path d="M112.888 81.9245C112.888 71.859 121.174 63.7104 131.376 63.7104C141.578 63.7104 149.863 71.859 149.863 81.9245C149.863 91.9901 141.578 100.139 131.376 100.139C121.174 100.139 112.888 91.9901 112.888 81.9245ZM131.376 95.4827C138.702 95.4827 144.661 89.3194 144.661 81.9245C144.661 74.5297 138.702 68.3664 131.376 68.3664C124.049 68.3664 118.091 74.4614 118.091 81.9245C118.091 89.3877 124.049 95.4827 131.376 95.4827Z" fill="white"/>
<path d="M158.081 64.8075H162.737V69.4634C165.408 65.9708 169.586 63.7124 174.515 63.7124C182.39 63.7124 189.58 69.3269 189.58 76.312V99.0455H184.376V76.5852C184.376 72.0658 179.651 68.3683 173.83 68.3683C168.008 68.3683 163.284 72.0658 163.284 76.5852V99.0455H158.079V64.8075H158.081Z" fill="white"/>
<path d="M197.18 88.7045H202.385C202.385 92.2654 205.946 95.4823 211.973 95.4823C216.492 95.4823 220.599 93.6336 220.599 90.2775C220.599 86.7167 216.08 85.4167 211.012 83.9777C204.78 82.1973 197.727 79.7997 197.727 73.3634C197.727 65.8319 206.217 63.7075 211.353 63.7075C219.16 63.7075 225.253 68.6366 225.253 74.7316H220.048C220.048 71.5829 216.899 68.3635 210.941 68.3635C206.695 68.3635 202.929 70.0073 202.929 73.156C202.929 76.6486 207.448 78.0168 212.446 79.3875C218.745 81.0997 225.799 83.6338 225.799 90.1384C225.799 97.6699 217.309 100.136 211.692 100.136C203.543 100.136 197.175 94.9992 197.175 88.6994L197.18 88.7045Z" fill="white"/>
<path d="M233.47 87.543V64.8096H238.674V87.2699C238.674 91.7893 243.399 95.4867 249.22 95.4867C255.042 95.4867 259.767 91.7893 259.767 87.2699V64.8096H264.971V99.0476H260.315V94.3916C257.645 97.8842 253.467 100.143 248.538 100.143C240.662 100.143 233.472 94.5282 233.472 87.543H233.47Z" fill="white"/>
<path d="M275.378 48.916H280.583V99.0389H275.378V48.916Z" fill="white"/>
<path d="M318.579 94.6549H305.987C303.112 94.6549 300.782 92.533 300.782 89.8623V69.5946H311.26V64.9387H300.782V55.8999H295.578V64.9387H287.702V69.5946H295.578V89.8623C295.578 95.0671 300.234 99.1743 305.985 99.1743H324.231C322.532 98.2714 320.977 97.1232 319.593 95.7449C319.239 95.3933 318.903 95.0292 318.579 94.6549Z" fill="white"/>
<path d="M315.023 82.0529C315.023 71.9874 323.308 63.8389 333.169 63.8389C339.059 63.8389 344.193 66.7827 347.344 71.3703V64.9339H352V99.172H347.344V92.7356C344.195 97.3232 339.059 100.267 333.169 100.267C323.308 100.267 315.023 92.1185 315.023 82.0529ZM333.51 95.6111C340.837 95.6111 346.795 89.5161 346.795 82.0529C346.795 74.5898 340.837 68.4948 333.51 68.4948C326.184 68.4948 320.225 74.5898 320.225 82.0529C320.225 89.5161 326.184 95.6111 333.51 95.6111Z" fill="white"/>
<path d="M177.922 35.7181C176.941 33.4369 175.593 31.4389 173.883 29.7268C172.174 28.0146 170.14 26.6565 167.788 25.6525C165.436 24.6485 162.892 24.1452 160.153 24.1452C157.414 24.1452 154.925 24.6359 152.553 25.6171C150.178 26.5984 148.102 27.9337 146.322 29.6231C144.541 31.3125 143.125 33.3104 142.075 35.6144C141.418 37.0585 140.965 38.5582 140.72 40.1186V20.683C140.72 16.9653 137.736 13.9431 134.031 13.8824C131.785 13.8445 129.671 14.9522 128.353 16.7706L119.719 28.6722C118.052 30.9711 114.628 30.9736 112.954 28.6798L104.208 16.682C102.926 14.9218 100.877 13.8799 98.6999 13.8799H98.6974C94.9418 13.8799 91.8943 16.9248 91.8943 20.683V50.1032C94.4587 50.9327 96.8917 52.172 99.1198 53.8032C100.207 54.5973 101.224 55.4698 102.167 56.4106C102.167 49.0967 102.167 41.7827 102.167 34.4687C102.167 33.9832 102.223 33.3914 102.779 33.27C103.1 33.1992 103.432 33.3281 103.644 33.5785C105.781 36.1 107.309 39.3649 110.108 41.2921C112.799 43.1458 116.348 43.6693 119.473 42.7437C123.922 41.4236 126.165 37.3569 128.77 33.8466C128.967 33.581 129.177 33.3028 129.564 33.2801C129.792 33.2674 130.02 33.3458 130.181 33.5077C130.449 33.7758 130.455 34.1577 130.455 34.5143C130.442 37.6604 130.449 40.809 130.449 43.9551V59.0863C130.449 60.5987 131.674 61.8227 133.186 61.8227H137.983C139.496 61.8227 140.72 60.5987 140.72 59.0863V45.8241C140.96 47.3491 141.4 48.8235 142.04 50.2423C143.067 52.526 144.46 54.5214 146.218 56.2336C147.976 57.9457 150.052 59.2937 152.45 60.2724C154.847 61.2537 157.414 61.7443 160.153 61.7443C161.797 61.7443 163.415 61.5597 165.014 61.193C166.612 60.8238 168.14 60.3078 169.602 59.6427C171.061 58.975 172.409 58.1708 173.64 57.2275C174.872 56.2842 175.944 55.2169 176.86 54.0207L173.797 52.1441C171.152 50.523 167.897 50.2802 165.026 51.4562C165.011 51.4638 164.996 51.4689 164.978 51.4765C163.403 52.1163 161.794 52.435 160.151 52.435C157.867 52.435 155.985 51.8154 154.501 50.5711C153.016 49.3293 151.977 47.8498 151.385 46.1352H177.626C178.511 46.1352 179.247 45.4574 179.321 44.5773V44.5621C179.366 44.0133 179.391 43.4898 179.391 42.9865C179.391 40.4297 178.901 38.0119 177.92 35.7282L177.922 35.7181ZM151.663 39.0741C152.394 37.5238 153.479 36.1986 154.915 35.1035C156.354 34.0084 158.099 33.4597 160.153 33.4597C162.207 33.4597 163.964 34.0084 165.426 35.1035C166.885 36.1986 167.96 37.5238 168.646 39.0741H151.663Z" fill="white"/>
<path d="M211.091 12.4362C208.253 12.4362 205.954 14.7351 205.954 17.5727V28.187C204.493 27.0009 202.884 26.0297 201.126 25.2761C199.369 24.5224 197.533 24.1456 195.613 24.1456C193.056 24.1456 190.636 24.6363 188.355 25.6175C186.071 26.5988 184.076 27.9341 182.363 29.6235C180.876 31.0929 179.662 32.7949 178.727 34.7271C178.81 34.9066 178.891 35.0837 178.97 35.2658C180.009 37.6835 180.535 40.2758 180.535 42.9743C180.535 43.4978 180.51 44.0592 180.462 44.6434V44.6636C180.338 46.1229 179.093 47.266 177.627 47.266H177.341C177.581 48.2802 177.907 49.269 178.322 50.2326C179.303 52.5163 180.639 54.5117 182.328 56.2238C184.017 57.936 186.003 59.284 188.286 60.2627C190.568 61.244 193.011 61.7346 195.613 61.7346C197.53 61.7346 199.356 61.3552 201.091 60.5965C202.826 59.8378 204.447 58.8363 205.952 57.5946V60.3639C211.624 60.3639 216.222 55.7661 216.222 50.0935V17.5676C216.222 14.7326 213.923 12.4312 211.086 12.4312L211.091 12.4362ZM205.474 46.6616C204.971 47.8224 204.293 48.8239 203.446 49.6635C202.598 50.5057 201.589 51.1759 200.421 51.6766C199.252 52.1774 198.006 52.4278 196.675 52.4278C195.345 52.4278 194.098 52.1774 192.93 51.6766C191.761 51.1759 190.755 50.5057 189.905 49.6635C189.058 48.8214 188.383 47.8199 187.877 46.6616C187.374 45.5008 187.121 44.2615 187.121 42.9414C187.121 41.6212 187.371 40.382 187.877 39.2237C188.38 38.0629 189.058 37.0614 189.905 36.2217C190.752 35.3796 191.761 34.7094 192.93 34.2086C194.098 33.7079 195.348 33.4575 196.675 33.4575C198.003 33.4575 199.252 33.7079 200.421 34.2086C201.589 34.7094 202.596 35.3796 203.446 36.2217C204.293 37.0639 204.968 38.0654 205.474 39.2237C205.977 40.3845 206.23 41.6238 206.23 42.9414C206.23 44.259 205.977 45.5008 205.474 46.6616Z" fill="white"/>
<path d="M58.5696 47.0218C58.251 47.1027 57.8918 47.1786 57.6086 47.0066C57.3532 46.8498 57.2469 46.5387 57.161 46.2504C56.2935 43.3471 55.861 40.1605 54.4094 37.4747C54.0275 36.7691 53.5141 36.0609 52.7503 35.8106C51.9233 35.5374 50.9876 35.889 50.3553 36.4883C49.7231 37.0877 49.3387 37.897 49.0048 38.7012C47.6341 42.0067 46.888 45.5322 46.0712 49.0045C45.8663 49.8745 45.6665 50.7369 45.4338 51.6018C45.3124 52.0571 45.1885 52.5123 45.0671 52.965C45.0064 53.1926 44.9457 53.4202 44.8825 53.6478C44.8345 53.8274 44.7207 54.0651 44.7207 54.2497C44.5386 54.9275 44.354 55.6078 44.0732 56.2502C43.9569 56.5158 43.8178 56.7813 43.5952 56.9659C43.1274 57.3554 42.3914 57.2719 41.9008 56.9128C41.4102 56.5537 41.1244 55.9771 40.9322 55.3979C40.4896 54.0651 40.0875 52.7121 39.7283 51.3515C38.6737 47.4315 37.6293 43.4912 36.6176 39.5535C36.4001 38.7063 36.1776 37.8363 35.6844 37.113C35.1913 36.3897 34.3643 35.8283 33.4918 35.8991C32.7963 35.9572 32.1893 36.3998 31.7214 36.9157C30.0118 38.8075 29.8626 41.4882 29.4908 43.8832C29.0558 46.6702 28.502 49.4496 27.6042 52.1279C27.5334 52.3378 27.455 52.5553 27.2931 52.707C26.9315 53.0434 26.3447 52.8942 25.9072 52.6666C24.8374 52.1127 23.9851 51.2427 23.1556 50.3854C18.6944 45.7724 14.3116 40.9268 11.3198 35.2036C9.79981 32.2952 8.49229 29.1137 7.97384 25.8689C7.47057 22.7178 7.63243 19.4502 8.60105 16.4028C9.03351 15.0421 9.62277 13.7321 10.3587 12.508C12.5489 8.85612 16.0566 5.9882 20.2371 4.97912C23.9776 4.07372 28.0594 4.67563 31.38 6.61793C32.379 7.20214 33.3577 7.92038 34.5059 8.06706C35.6541 8.21375 37.0223 7.49804 37.0602 6.34227C37.088 5.50769 36.4431 4.8122 35.8058 4.27099C31.2991 0.444562 24.8678 -0.8756 19.1345 0.573536C13.4011 2.02267 8.45689 6.11212 5.68001 11.332C3.97545 14.5363 3.04729 18.1529 3.00177 21.7845C2.92084 28.3019 5.62185 34.4626 8.94499 39.9354C11.6713 44.4244 14.9894 48.5063 18.6109 52.3024C18.6109 52.3024 22.4627 56.6245 23.9649 57.5248C24.3594 57.7626 24.7995 57.932 25.2446 58.0509C29.2278 59.1156 31.4003 55.274 32.2778 51.9888C32.7381 50.2614 32.8797 48.4962 33.0694 46.7233C33.0922 46.5084 33.1175 46.2833 33.2743 46.1164C33.335 46.0506 33.4184 46.0026 33.5069 45.9924C33.7725 45.9621 33.9141 46.2125 34.0026 46.4274C34.1443 46.7714 34.2505 47.128 34.3365 47.4896C35.08 50.5928 35.9045 53.663 36.6758 56.756C37.3283 59.2572 38.7901 61.3462 41.5568 61.852C43.441 62.196 45.4743 61.5789 46.8476 60.2435C48.5066 58.63 49.0933 56.2401 49.6093 53.9842C50.1808 51.4804 50.7524 48.9767 51.3315 46.473C51.3897 46.2226 51.587 46.0203 51.8399 45.9773C52.1459 45.9267 52.3078 46.1594 52.419 46.3819C52.9451 47.434 52.9147 48.6732 53.509 49.7C54.0376 50.613 55.1428 51.0277 56.1595 51.0783C57.1711 51.1289 58.17 50.8735 59.1488 50.618C59.8215 50.4435 60.4942 50.2665 61.1695 50.092L64.7253 49.1664L75.4888 46.5868C76.0022 46.4527 76.4296 46.0987 76.6522 45.6181C77.2844 44.2601 76.0553 42.7755 74.6012 43.1448L58.5696 47.0218Z" fill="white"/>
<path d="M66.472 2.92272C60.2329 0.7427 53.5588 2.09826 48.4097 6.13965C47.6889 6.70615 47.0035 7.31565 46.3561 7.96561C44.4846 9.84468 42.9014 12.0196 41.6799 14.3742C41.2323 15.2366 40.8352 16.1268 40.4963 17.0372C40.4559 17.0372 40.4179 17.0347 40.3775 17.0347C36.7559 17.0347 33.8096 19.981 33.8096 23.6026C33.8096 27.2242 36.7559 30.1705 40.3775 30.1705C43.9991 30.1705 46.9454 27.2242 46.9454 23.6026C46.9454 21.6552 46.0931 19.9026 44.7401 18.6988C46.1816 15.7373 47.8634 12.8643 50.2761 10.5857C53.2629 7.76581 57.2841 6.13965 61.4089 6.48107C64.9597 6.77444 68.384 8.48153 70.9333 10.9625C75.3161 15.2239 76.917 21.7412 75.7435 27.649C74.6965 32.9271 71.7021 38.8779 68.2626 43.1368C68.0224 43.4327 68.298 43.8627 68.6673 43.7741L74.2337 42.4236C74.3829 42.3882 74.5144 42.2972 74.6029 42.1707C77.6883 37.6539 80.0302 31.3111 80.6321 25.8585L80.7181 24.1969C80.7282 14.8395 75.397 6.04607 66.472 2.92778V2.92272ZM40.3775 27.1255C38.4326 27.1255 36.852 25.5449 36.852 23.6001C36.852 21.6552 38.4326 20.0746 40.3775 20.0746C42.3223 20.0746 43.9029 21.6552 43.9029 23.6001C43.9029 25.5449 42.3223 27.1255 40.3775 27.1255Z" fill="white"/>
<path d="M40.3775 20.0811C38.4327 20.0811 36.8521 21.6617 36.8521 23.6065C36.8521 25.5514 38.4327 27.132 40.3775 27.132C42.3224 27.132 43.903 25.5514 43.903 23.6065C43.903 21.6617 42.3224 20.0811 40.3775 20.0811Z" fill="#4A91E5"/>
<path d="M12.3074 12.3589C12.3074 12.3589 8.44049 17.4954 9.35095 24.7916C9.4597 25.6641 10.7596 25.5301 10.6989 24.6525C10.4359 20.8944 10.6382 16.3295 12.3074 12.3589Z" fill="#4A91E5"/>
</g>
<defs>
<filter id="filter0_d_1_429" x="0" y="0" width="355" height="107.267" filterUnits="userSpaceOnUse" color-interpolation-filters="sRGB">
<feFlood flood-opacity="0" result="BackgroundImageFix"/>
<feColorMatrix in="SourceAlpha" type="matrix" values="0 0 0 0 0 0 0 0 0 0 0 0 0 0 0 0 0 0 127 0" result="hardAlpha"/>
<feOffset dy="4"/>
<feGaussianBlur stdDeviation="1.5"/>
<feComposite in2="hardAlpha" operator="out"/>
<feColorMatrix type="matrix" values="0 0 0 0 0 0 0 0 0 0 0 0 0 0 0 0 0 0 0.25 0"/>
<feBlend mode="normal" in2="BackgroundImageFix" result="effect1_dropShadow_1_429"/>
<feBlend mode="normal" in="SourceGraphic" in2="effect1_dropShadow_1_429" result="shape"/>
</filter>
</defs>
</svg>
