<svg width="369" height="337" viewBox="0 0 369 337" fill="none" xmlns="http://www.w3.org/2000/svg">
<path d="M263.386 222.63C261.878 223.015 260.179 223.373 258.85 222.564C257.641 221.825 257.14 220.349 256.733 218.991C252.64 205.271 250.593 190.223 243.735 177.536C241.93 174.196 239.502 170.857 235.896 169.671C231.985 168.382 227.573 170.041 224.582 172.871C221.594 175.701 219.774 179.527 218.196 183.328C211.716 198.948 208.19 215.596 204.334 232.003C203.367 236.115 202.419 240.183 201.317 244.273C200.739 246.422 200.16 248.568 199.582 250.717C199.292 251.79 199.003 252.866 198.714 253.939C198.487 254.785 197.948 255.909 197.948 256.781C197.088 259.981 196.22 263.195 194.884 266.231C194.331 267.483 193.676 268.735 192.621 269.61C190.406 271.448 186.931 271.06 184.613 269.354C182.296 267.648 180.945 264.927 180.037 262.196C177.942 255.894 176.053 249.502 174.347 243.079C169.36 224.56 164.428 205.945 159.657 187.341C158.628 183.332 157.577 179.227 155.249 175.807C152.92 172.388 149.013 169.733 144.887 170.074C141.606 170.348 138.735 172.435 136.528 174.877C128.45 183.811 127.751 196.48 125.986 207.79C123.936 220.957 121.322 234.083 117.071 246.734C116.737 247.726 116.368 248.758 115.599 249.469C113.889 251.054 111.121 250.347 109.052 249.275C104.003 246.664 99.9679 242.545 96.0574 238.503C74.9784 216.713 54.2729 193.822 40.136 166.775C32.9522 153.033 26.7717 138.003 24.3258 122.676C21.9495 107.789 22.7111 92.3555 27.2916 77.9514C29.3347 71.5219 32.1247 65.334 35.5921 59.5489C45.9394 42.2924 62.5112 28.7524 82.2684 23.9742C99.9386 19.7013 119.223 22.5389 134.917 31.7145C139.64 34.4752 144.264 37.8657 149.69 38.5651C155.117 39.2644 161.576 35.8812 161.762 30.411C161.894 26.464 158.848 23.187 155.834 20.6313C134.539 2.55833 104.157 -3.67713 77.0764 3.16247C49.9963 10.0057 26.6325 29.3272 13.5099 53.9871C5.45101 69.1309 1.07557 86.2153 0.859542 103.369C0.475089 134.162 13.2316 163.267 28.9356 189.117C41.8166 210.324 57.4877 229.605 74.5976 247.539C74.5976 247.539 92.7951 267.955 99.8983 272.217C101.766 273.338 103.842 274.143 105.94 274.707C124.756 279.738 135.023 261.584 139.164 246.071C141.339 237.917 142.012 229.565 142.906 221.202C143.016 220.184 143.136 219.122 143.876 218.332C144.169 218.02 144.557 217.797 144.978 217.749C146.227 217.607 146.904 218.789 147.318 219.807C147.984 221.433 148.49 223.121 148.9 224.831C152.407 239.487 156.303 253.998 159.957 268.611C163.033 280.43 169.946 290.294 183.021 292.688C191.918 294.318 201.526 291.4 208.014 285.095C215.853 277.475 218.625 266.187 221.056 255.525C223.751 243.695 226.453 231.864 229.188 220.041C229.463 218.859 230.393 217.896 231.59 217.705C233.036 217.471 233.798 218.566 234.321 219.613C236.808 224.582 236.665 230.444 239.473 235.284C241.974 239.594 247.199 241.553 251.999 241.798C256.777 242.043 261.497 240.828 266.125 239.623C269.307 238.795 272.485 237.968 275.667 237.137C281.265 235.68 286.863 234.219 292.465 232.761L343.316 220.569C345.74 219.939 347.753 218.258 348.812 215.988C351.803 209.566 345.992 202.558 339.127 204.305L263.393 222.623L263.386 222.63Z" fill="#4A91E5"/>
<path d="M300.725 14.3039C271.243 4.0042 239.715 10.4081 215.388 29.5026C211.983 32.1755 208.742 35.0571 205.689 38.1254C196.85 47.0044 189.366 57.2748 183.599 68.3947C181.486 72.4699 179.608 76.6696 178.004 80.9718C177.818 80.9718 177.631 80.9572 177.441 80.9572C160.331 80.9572 146.41 94.8781 146.41 111.988C146.41 129.098 160.331 143.019 177.441 143.019C194.551 143.019 208.471 129.098 208.471 111.988C208.471 102.787 204.44 94.5083 198.055 88.822C204.869 74.8316 212.807 61.2622 224.216 50.4901C238.323 37.1661 257.319 29.4916 276.805 31.1027C293.578 32.4904 309.755 40.5493 321.804 52.2733C342.506 72.4077 350.071 103.193 344.528 131.112C339.577 156.05 325.429 184.163 309.183 204.275C308.052 205.674 309.345 207.706 311.095 207.281L337.391 200.899C338.098 200.727 338.72 200.303 339.134 199.702C353.714 178.363 364.772 148.398 367.617 122.636L368.027 114.785C368.078 70.5806 342.891 29.034 300.718 14.3002L300.725 14.3039ZM177.444 128.644C168.261 128.644 160.792 121.175 160.792 111.992C160.792 102.809 168.261 95.3394 177.444 95.3394C186.627 95.3394 194.097 102.809 194.097 111.992C194.097 121.175 186.627 128.644 177.444 128.644Z" fill="#4A91E5"/>
<path d="M177.444 95.3354C168.261 95.3354 160.792 102.805 160.792 111.988C160.792 121.171 168.261 128.64 177.444 128.64C186.627 128.64 194.097 121.171 194.097 111.988C194.097 102.805 186.627 95.3354 177.444 95.3354Z" fill="white"/>
<path d="M175.314 150.364C155.124 150.364 138.703 133.938 138.703 113.753C138.703 111.369 140.632 109.439 143.016 109.439C145.399 109.439 147.329 111.369 147.329 113.753C147.329 129.186 159.884 141.737 175.314 141.737C177.697 141.737 179.627 143.667 179.627 146.05C179.627 148.434 177.697 150.364 175.314 150.364Z" fill="white"/>
<path d="M293.513 238.067C282.059 241.051 271.416 246.539 262.343 254.133C234.951 277.05 203.594 302.702 190.183 311.907C189.355 312.475 188.454 313.064 187.455 313.046C186.415 313.024 185.514 312.354 184.694 311.71C174.512 303.72 164.439 295.592 154.33 287.507C149.203 283.407 144.074 279.306 138.948 275.209C137.718 274.224 136.487 273.242 135.257 272.257C133.595 270.928 133.481 270.335 131.943 271.833C130.061 273.843 128.048 275.531 125.92 276.889C125.909 276.897 125.898 276.904 125.887 276.911C125.862 276.929 125.832 276.944 125.807 276.962C125.583 277.102 125.36 277.241 125.137 277.373C125.118 277.383 125.104 277.394 125.085 277.402C121.391 279.577 117.378 280.778 113.149 280.939C113.113 280.939 113.072 280.942 113.036 280.942C112.743 280.953 112.45 280.957 112.153 280.957C111.831 280.957 111.505 280.95 111.179 280.939C111.172 280.939 111.165 280.939 111.157 280.939C110.839 280.928 110.52 280.909 110.202 280.888C110.202 280.888 110.198 280.888 110.194 280.888C122.966 291.476 135.682 302.139 148.706 312.416C154.952 317.348 161.264 322.207 167.752 326.824C172.318 330.075 176.646 334.074 181.974 336.055C187.905 338.263 192.658 336.172 197.725 332.869C219.969 318.366 291.634 257.451 312.384 240.86C313.892 239.656 316.364 237.51 319.117 235.013C320.347 233.9 319.282 231.879 317.671 232.267L293.783 237.994L293.527 238.059L293.513 238.067Z" fill="#4A91E5"/>
<path d="M291.997 2.22112C291.492 2.23211 327.202 3.49531 353.026 36.7231C355.684 40.1429 360.924 36.4045 358.496 32.8163C347.204 16.0981 327.253 1.45588 291.997 2.22478V2.22112Z" fill="white"/>
<path d="M44.8228 58.875C44.8228 58.875 26.5521 83.1431 30.8506 117.608C31.3633 121.724 37.5109 121.094 37.2216 116.953C35.9767 99.195 36.9397 77.6326 44.8228 58.875Z" fill="white"/>
</svg>
