<svg width="180" height="52" viewBox="0 0 180 52" fill="none" xmlns="http://www.w3.org/2000/svg">
<path d="M28.7417 38.7197C28.7417 31.5861 34.6035 25.7933 41.8089 25.7933C47.3538 25.7933 52.0508 29.396 53.8169 34.41H50.9565C49.3677 30.8073 45.8707 28.3356 41.8102 28.3356C36.1597 28.3356 31.5683 32.9974 31.5683 38.7183C31.5683 44.4393 36.1597 49.1011 41.8102 49.1011C45.872 49.1011 49.3677 46.5941 50.9565 43.0267H53.8522C52.086 48.042 47.3538 51.6434 41.8089 51.6434C34.6049 51.6434 28.7417 45.852 28.7417 38.717V38.7197Z" fill="#034677"/>
<path d="M56.6755 42.2542C56.6755 37.0628 60.9487 32.8601 66.2105 32.8601C71.4723 32.8601 75.7454 37.0628 75.7454 42.2542C75.7454 47.4456 71.4723 51.6483 66.2105 51.6483C60.9487 51.6483 56.6755 47.4456 56.6755 42.2542ZM66.2105 49.2469C69.9893 49.2469 73.0624 46.0682 73.0624 42.2542C73.0624 38.4402 69.9893 35.2615 66.2105 35.2615C62.4317 35.2615 59.3586 38.405 59.3586 42.2542C59.3586 46.1034 62.4317 49.2469 66.2105 49.2469Z" fill="#034677"/>
<path d="M79.9849 33.4249H82.3863V35.8262C83.7637 34.0249 85.9185 32.8601 88.4607 32.8601C92.5226 32.8601 96.2309 35.7558 96.2309 39.3585V51.0835H93.5465V39.4994C93.5465 37.1684 91.1099 35.2615 88.1073 35.2615C85.1046 35.2615 82.668 37.1684 82.668 39.4994V51.0835H79.9836V33.4249H79.9849Z" fill="#034677"/>
<path d="M100.15 45.7518H102.834C102.834 47.5884 104.671 49.2475 107.779 49.2475C110.11 49.2475 112.228 48.294 112.228 46.5631C112.228 44.7266 109.897 44.0561 107.283 43.3139C104.069 42.3956 100.432 41.1591 100.432 37.8395C100.432 33.955 104.81 32.8594 107.46 32.8594C111.486 32.8594 114.628 35.4016 114.628 38.5451H111.944C111.944 36.9212 110.32 35.2607 107.247 35.2607C105.057 35.2607 103.115 36.1086 103.115 37.7325C103.115 39.5338 105.446 40.2395 108.023 40.9465C111.272 41.8295 114.91 43.1365 114.91 46.4914C114.91 50.3758 110.531 51.6476 107.634 51.6476C103.432 51.6476 100.147 48.9984 100.147 45.7492L100.15 45.7518Z" fill="#034677"/>
<path d="M118.866 45.1517V33.4268H121.551V45.0109C121.551 47.3418 123.987 49.2488 126.99 49.2488C129.992 49.2488 132.429 47.3418 132.429 45.0109V33.4268H135.113V51.0853H132.712V48.684C131.335 50.4853 129.18 51.6501 126.638 51.6501C122.576 51.6501 118.868 48.7544 118.868 45.1517H118.866Z" fill="#034677"/>
<path d="M140.481 25.2302H143.166V51.0815H140.481V25.2302Z" fill="#034677"/>
<path d="M162.762 48.82H156.268C154.785 48.82 153.583 47.7256 153.583 46.3482V35.895H158.987V33.4936H153.583V28.8318H150.899V33.4936H146.837V35.895H150.899V46.3482C150.899 49.0326 153.3 51.1509 156.266 51.1509H165.678C164.801 50.6853 163.999 50.0931 163.285 49.3822C163.103 49.2009 162.929 49.0131 162.762 48.82Z" fill="#034677"/>
<path d="M160.929 42.3201C160.929 37.1287 165.202 32.926 170.288 32.926C173.326 32.926 175.974 34.4443 177.599 36.8104V33.4908H180V51.1494H177.599V47.8298C175.975 50.1959 173.326 51.7142 170.288 51.7142C165.202 51.7142 160.929 47.5115 160.929 42.3201ZM170.464 49.3128C174.243 49.3128 177.316 46.1693 177.316 42.3201C177.316 38.4709 174.243 35.3274 170.464 35.3274C166.685 35.3274 163.612 38.4709 163.612 42.3201C163.612 46.1693 166.685 49.3128 170.464 49.3128Z" fill="#034677"/>
<path d="M90.2182 18.4207C89.7121 17.2442 89.0168 16.2137 88.1351 15.3307C87.2533 14.4476 86.2046 13.7472 84.9915 13.2293C83.7785 12.7115 82.4663 12.4519 81.0536 12.4519C79.641 12.4519 78.3575 12.705 77.134 13.2111C75.9092 13.7172 74.8383 14.4059 73.92 15.2772C73.0017 16.1485 72.2713 17.179 71.73 18.3672C71.3908 19.112 71.1574 19.8855 71.0308 20.6903V10.6662C71.0308 8.7488 69.4917 7.19008 67.5808 7.15878C66.4225 7.13921 65.332 7.71052 64.6525 8.64837L60.1993 14.7867C59.3398 15.9724 57.5736 15.9737 56.7101 14.7906L52.1996 8.60271C51.5383 7.69487 50.4818 7.15747 49.3587 7.15747H49.3574C47.4204 7.15747 45.8486 8.72793 45.8486 10.6662V25.84C47.1713 26.2678 48.4261 26.907 49.5752 27.7483C50.1361 28.1578 50.6605 28.6079 51.147 29.0931C51.147 25.3208 51.147 21.5486 51.147 17.7764C51.147 17.5259 51.1757 17.2207 51.4626 17.1581C51.6283 17.1216 51.7992 17.1881 51.9087 17.3172C53.0109 18.6177 53.7988 20.3016 55.2427 21.2955C56.6306 22.2517 58.4606 22.5217 60.0728 22.0443C62.3672 21.3634 63.5242 19.266 64.8677 17.4555C64.9694 17.3185 65.0777 17.175 65.2773 17.1633C65.3947 17.1568 65.512 17.1972 65.5955 17.2807C65.7338 17.419 65.7364 17.6159 65.7364 17.7998C65.7299 19.4225 65.7338 21.0464 65.7338 22.6691V30.4731C65.7338 31.2531 66.3651 31.8844 67.1451 31.8844H69.6195C70.3995 31.8844 71.0308 31.2531 71.0308 30.4731V23.633C71.1548 24.4195 71.3817 25.18 71.7117 25.9117C72.2413 27.0896 72.96 28.1187 73.8665 29.0018C74.7731 29.8848 75.844 30.5801 77.0805 31.0849C78.3171 31.5909 79.641 31.844 81.0536 31.844C81.9015 31.844 82.7363 31.7488 83.5606 31.5596C84.385 31.3692 85.1728 31.1031 85.9268 30.7601C86.6794 30.4157 87.3746 30.0009 88.0099 29.5144C88.6451 29.0279 89.1981 28.4774 89.6703 27.8605L88.0907 26.8926C86.7264 26.0565 85.0476 25.9313 83.5672 26.5378C83.5593 26.5417 83.5515 26.5443 83.5424 26.5483C82.7298 26.8783 81.9002 27.0426 81.0523 27.0426C79.8745 27.0426 78.904 26.723 78.1384 26.0813C77.3727 25.4408 76.8366 24.6778 76.5314 23.7934H90.0655C90.5221 23.7934 90.9016 23.4438 90.9395 22.9899V22.9821C90.963 22.6991 90.976 22.429 90.976 22.1695C90.976 20.8508 90.7229 19.6038 90.2169 18.4259L90.2182 18.4207ZM76.6749 20.1516C77.0518 19.352 77.6114 18.6685 78.3523 18.1038C79.0945 17.539 79.9945 17.2559 81.0536 17.2559C82.1128 17.2559 83.0193 17.539 83.7733 18.1038C84.5259 18.6685 85.0802 19.352 85.4337 20.1516H76.6749Z" fill="#0092E8"/>
<path d="M107.325 6.41289C105.861 6.41289 104.675 7.59856 104.675 9.06207V14.5365C103.921 13.9248 103.092 13.4239 102.185 13.0352C101.279 12.6465 100.332 12.4521 99.3418 12.4521C98.0231 12.4521 96.7748 12.7052 95.5983 13.2113C94.4204 13.7174 93.3913 14.4061 92.5082 15.2774C91.7412 16.0352 91.1151 16.9131 90.6325 17.9096C90.6756 18.0022 90.7173 18.0935 90.7577 18.1874C91.2938 19.4344 91.5651 20.7714 91.5651 22.1632C91.5651 22.4332 91.5521 22.7227 91.5273 23.024V23.0345C91.4634 23.7871 90.8217 24.3767 90.0651 24.3767H89.9177C90.0416 24.8997 90.2099 25.4097 90.4238 25.9067C90.9299 27.0846 91.6186 28.1137 92.4899 28.9968C93.3613 29.8798 94.3852 30.5751 95.563 31.0798C96.7396 31.5859 97.9996 31.839 99.3418 31.839C100.331 31.839 101.272 31.6433 102.167 31.252C103.062 30.8607 103.898 30.3442 104.674 29.7037V31.132C107.6 31.132 109.971 28.7607 109.971 25.835V9.05945C109.971 7.59726 108.785 6.41028 107.322 6.41028L107.325 6.41289ZM104.428 24.0649C104.168 24.6636 103.818 25.1802 103.381 25.6132C102.944 26.0476 102.424 26.3932 101.821 26.6515C101.219 26.9098 100.576 27.0389 99.8896 27.0389C99.2035 27.0389 98.5605 26.9098 97.9579 26.6515C97.3552 26.3932 96.8361 26.0476 96.3978 25.6132C95.9609 25.1789 95.6126 24.6623 95.3517 24.0649C95.0922 23.4662 94.9617 22.8271 94.9617 22.1462C94.9617 21.4653 95.0909 20.8262 95.3517 20.2288C95.6113 19.6301 95.9609 19.1135 96.3978 18.6805C96.8348 18.2461 97.3552 17.9005 97.9579 17.6422C98.5605 17.384 99.2048 17.2548 99.8896 17.2548C100.574 17.2548 101.219 17.384 101.821 17.6422C102.424 17.9005 102.943 18.2461 103.381 18.6805C103.818 19.1149 104.167 19.6314 104.428 20.2288C104.687 20.8275 104.818 21.4666 104.818 22.1462C104.818 22.8258 104.687 23.4662 104.428 24.0649Z" fill="#0092E8"/>
<path d="M28.6605 24.2519C28.4962 24.2936 28.311 24.3328 28.1649 24.2441C28.0331 24.1632 27.9784 24.0028 27.934 23.8541C27.4866 22.3566 27.2636 20.7131 26.5149 19.3279C26.3179 18.964 26.0531 18.5987 25.6592 18.4696C25.2327 18.3287 24.75 18.5101 24.4239 18.8192C24.0979 19.1283 23.8996 19.5457 23.7274 19.9605C23.0204 21.6653 22.6357 23.4836 22.2143 25.2745C22.1087 25.7232 22.0056 26.168 21.8856 26.6141C21.823 26.8489 21.7591 27.0837 21.6965 27.3172C21.6652 27.4346 21.6339 27.552 21.6013 27.6693C21.5765 27.762 21.5178 27.8846 21.5178 27.9798C21.4239 28.3294 21.3287 28.6802 21.1839 29.0115C21.1239 29.1485 21.0521 29.2855 20.9374 29.3807C20.6961 29.5816 20.3165 29.5385 20.0634 29.3533C19.8104 29.1681 19.663 28.8707 19.5639 28.572C19.3356 27.8846 19.1282 27.1867 18.943 26.485C18.3991 24.4632 17.8604 22.431 17.3386 20.4001C17.2264 19.9631 17.1116 19.5144 16.8573 19.1414C16.6029 18.7683 16.1764 18.4787 15.7264 18.5153C15.3677 18.5453 15.0547 18.7735 14.8133 19.0396C13.9316 20.0153 13.8546 21.3979 13.6629 22.6332C13.4385 24.0706 13.1529 25.5041 12.6898 26.8854C12.6533 26.9937 12.6129 27.1059 12.5294 27.1841C12.3429 27.3576 12.0403 27.2806 11.8146 27.1633C11.2628 26.8776 10.8233 26.4289 10.3954 25.9867C8.09453 23.6075 5.83406 21.1084 4.29099 18.1566C3.50706 16.6565 2.8327 15.0156 2.5653 13.3421C2.30574 11.7169 2.38922 10.0316 2.88879 8.45987C3.11184 7.75812 3.41575 7.08245 3.79533 6.45114C4.92491 4.56762 6.73408 3.08847 8.8902 2.56802C10.8194 2.10106 12.9246 2.4115 14.6373 3.41326C15.1525 3.71457 15.6573 4.08501 16.2495 4.16066C16.8416 4.23631 17.5473 3.86718 17.5669 3.27108C17.5812 2.84064 17.2486 2.48194 16.9199 2.2028C14.5955 0.229287 11.2785 -0.451598 8.32149 0.295806C5.36448 1.04321 2.81444 3.15238 1.38224 5.8446C0.503096 7.49724 0.0243928 9.3625 0.000914145 11.2356C-0.0408257 14.5969 1.35224 17.7744 3.06618 20.597C4.4723 22.9123 6.18363 25.0176 8.05149 26.9754C8.05149 26.9754 10.038 29.2046 10.8128 29.6689C11.0163 29.7916 11.2433 29.879 11.4729 29.9403C13.5272 30.4894 14.6477 28.5081 15.1003 26.8137C15.3377 25.9228 15.4107 25.0123 15.5086 24.098C15.5203 23.9871 15.5334 23.871 15.6142 23.7849C15.6455 23.751 15.6886 23.7262 15.7342 23.721C15.8712 23.7054 15.9442 23.8345 15.9899 23.9454C16.0629 24.1228 16.1177 24.3067 16.1621 24.4932C16.5456 26.0937 16.9708 27.6772 17.3686 29.2724C17.7051 30.5624 18.4591 31.6399 19.886 31.9007C20.8578 32.0781 21.9065 31.7599 22.6148 31.0711C23.4705 30.239 23.7731 29.0063 24.0392 27.8428C24.3339 26.5515 24.6287 25.2602 24.9274 23.9688C24.9574 23.8397 25.0592 23.7354 25.1896 23.7132C25.3474 23.6871 25.4309 23.8071 25.4883 23.9219C25.7596 24.4645 25.744 25.1036 26.0505 25.6332C26.3231 26.1041 26.8931 26.318 27.4175 26.3441C27.9392 26.3702 28.4545 26.2385 28.9592 26.1067C29.3062 26.0167 29.6532 25.9254 30.0014 25.8354L31.8354 25.358L37.3868 24.0275C37.6516 23.9584 37.872 23.7758 37.9868 23.528C38.3129 22.8275 37.679 22.0619 36.9289 22.2523L28.6605 24.2519Z" fill="#034677"/>
<path d="M32.7371 1.50794C29.5192 0.383572 26.077 1.08271 23.4213 3.1671C23.0495 3.45928 22.696 3.77363 22.3621 4.10885C21.3969 5.078 20.5803 6.19976 19.9503 7.41412C19.7194 7.85891 19.5147 8.31805 19.3399 8.78762C19.319 8.78762 19.2994 8.78632 19.2786 8.78632C17.4107 8.78632 15.8911 10.3059 15.8911 12.1738C15.8911 14.0416 17.4107 15.5612 19.2786 15.5612C21.1464 15.5612 22.666 14.0416 22.666 12.1738C22.666 11.1694 22.2265 10.2655 21.5286 9.6446C22.2721 8.11718 23.1395 6.63541 24.3839 5.46018C25.9243 4.0058 27.9983 3.1671 30.1257 3.34319C31.9571 3.49449 33.7232 4.37494 35.038 5.65453C37.2985 7.85239 38.1241 11.2137 37.5189 14.2608C36.9789 16.983 35.4345 20.0522 33.6606 22.2487C33.5367 22.4013 33.6788 22.6231 33.8693 22.5774L36.7402 21.8809C36.8172 21.8626 36.885 21.8157 36.9306 21.7504C38.522 19.4208 39.7298 16.1495 40.0403 13.3373L40.0846 12.4803C40.0898 7.65413 37.3402 3.11883 32.7371 1.51055V1.50794ZM19.2786 13.9908C18.2755 13.9908 17.4603 13.1755 17.4603 12.1725C17.4603 11.1694 18.2755 10.3542 19.2786 10.3542C20.2816 10.3542 21.0969 11.1694 21.0969 12.1725C21.0969 13.1755 20.2816 13.9908 19.2786 13.9908Z" fill="#034677"/>
<path d="M19.2785 10.3584C18.2754 10.3584 17.4602 11.1736 17.4602 12.1767C17.4602 13.1798 18.2754 13.995 19.2785 13.995C20.2816 13.995 21.0968 13.1798 21.0968 12.1767C21.0968 11.1736 20.2816 10.3584 19.2785 10.3584Z" fill="#4A91E5"/>
<path d="M4.79952 6.375C4.79952 6.375 2.80513 9.02418 3.27471 12.7873C3.3308 13.2373 4.00125 13.1682 3.96994 12.7155C3.83429 10.7773 3.93863 8.42286 4.79952 6.375Z" fill="#4A91E5"/>
</svg>
