<svg width="54" height="50" viewBox="0 0 54 50" fill="none" xmlns="http://www.w3.org/2000/svg">
<path d="M38.61 32.6729C38.3881 32.7293 38.1383 32.7824 37.9426 32.6632C37.7647 32.5548 37.6911 32.3375 37.6312 32.1379C37.0289 30.1205 36.7284 27.907 35.72 26.0413C35.4547 25.5502 35.0971 25.0592 34.5673 24.8846C33.9923 24.6953 33.3433 24.9394 32.9035 25.3552C32.4638 25.7715 32.1963 26.3339 31.9641 26.8934C31.0111 29.1908 30.4926 31.6388 29.9257 34.0514C29.7837 34.6566 29.6439 35.2543 29.4819 35.856C29.397 36.172 29.312 36.488 29.227 36.8034C29.1842 36.9614 29.142 37.1194 29.0992 37.2774C29.0656 37.4017 28.9869 37.5671 28.9869 37.6954C28.8603 38.166 28.7325 38.6388 28.5363 39.0848C28.4553 39.269 28.3583 39.4533 28.2038 39.5822C27.8781 39.8525 27.3671 39.7955 27.026 39.5445C26.6849 39.2936 26.4864 38.8937 26.353 38.4916C26.045 37.5648 25.7666 36.6249 25.5162 35.6804C24.7828 32.9569 24.0573 30.2192 23.3557 27.4832C23.2046 26.894 23.05 26.29 22.7072 25.7869C22.365 25.2839 21.7901 24.8938 21.1838 24.944C20.7013 24.9839 20.2792 25.2913 19.9541 25.6506C18.7661 26.9647 18.6634 28.8275 18.4039 30.4907C18.1022 32.4265 17.7177 34.3577 17.0932 36.2182C17.0441 36.3642 16.99 36.5159 16.877 36.6203C16.6255 36.853 16.2188 36.7492 15.9143 36.5918C15.1717 36.2079 14.5779 35.6016 14.003 35.0079C10.9031 31.8036 7.85852 28.4368 5.779 24.4592C4.72269 22.4384 3.81411 20.2282 3.45365 17.9742C3.10402 15.7852 3.21638 13.5151 3.8894 11.3968C4.18998 10.4512 4.60006 9.54146 5.10997 8.69049C6.63168 6.1524 9.06882 4.16129 11.9742 3.45861C14.5728 2.83008 17.4086 3.24701 19.7163 4.59704C20.411 5.00314 21.0908 5.50163 21.8888 5.60429C22.6867 5.70696 23.6369 5.2096 23.6637 4.4054C23.6831 3.82478 23.2348 3.34283 22.7922 2.96696C19.6604 0.309098 15.1928 -0.608035 11.2099 0.398074C7.22714 1.40418 3.7913 4.24627 1.86178 7.8726C0.676571 10.0998 0.0332068 12.6123 0.00126671 15.135C-0.0557691 19.6636 1.82071 23.9435 4.13009 27.745C6.02425 30.8637 8.32907 33.6995 10.8455 36.3368C10.8455 36.3368 13.5216 39.3398 14.5659 39.966C14.8403 40.1308 15.1454 40.2495 15.4546 40.3322C18.2219 41.0725 19.7317 38.4027 20.3402 36.1212C20.6602 34.9218 20.7589 33.6938 20.8906 32.4635C20.9066 32.3135 20.9243 32.1578 21.0338 32.0415C21.0766 31.9958 21.1336 31.9628 21.1964 31.9554C21.38 31.9342 21.4793 32.1082 21.5408 32.2582C21.639 32.4972 21.7131 32.7453 21.7736 32.9968C22.2897 35.1522 22.8624 37.2859 23.3996 39.435C23.8519 41.1729 24.8683 42.6239 26.7916 42.9758C28.1 43.2153 29.5133 42.7859 30.467 41.859C31.6196 40.7383 32.0275 39.078 32.3851 37.5106C32.7815 35.771 33.179 34.0314 33.5811 32.2924C33.6216 32.1185 33.7579 31.977 33.9342 31.9485C34.1469 31.9143 34.2587 32.0751 34.3357 32.2291C34.7013 32.9597 34.6802 33.8216 35.0931 34.5339C35.4604 35.1676 36.2293 35.4556 36.9354 35.4916C37.6381 35.5275 38.3322 35.349 39.0126 35.1716C39.4803 35.0495 39.948 34.9281 40.4157 34.806C41.2393 34.5915 42.0623 34.3771 42.8859 34.1626L50.3639 32.3694C50.7204 32.2765 51.017 32.0295 51.1721 31.6958C51.6118 30.7519 50.7575 29.7207 49.7479 29.9774L38.61 32.6717V32.6729Z" fill="white"/>
<path d="M44.1009 2.03585C39.7656 0.520984 35.128 1.46264 31.5507 4.27108C31.0499 4.66405 30.5737 5.08783 30.1243 5.53898C28.8244 6.84452 27.7236 8.3554 26.8761 9.99061C26.5652 10.5901 26.2892 11.2077 26.0536 11.8403C26.0262 11.8403 25.9989 11.838 25.9709 11.838C23.4545 11.838 21.4075 13.885 21.4075 16.4014C21.4075 18.9178 23.4545 20.9648 25.9709 20.9648C28.4873 20.9648 30.5343 18.9178 30.5343 16.4014C30.5343 15.048 29.9417 13.8308 29.0029 12.9947C30.005 10.9374 31.1726 8.94172 32.85 7.35784C34.9244 5.39867 37.7186 4.26993 40.584 4.50663C43.0508 4.71082 45.4292 5.89602 47.2019 7.61964C50.2459 10.5809 51.3587 15.1078 50.5436 19.2133C49.8159 22.8807 47.7352 27.0146 45.346 29.973C45.18 30.1789 45.3699 30.4778 45.6272 30.4156L49.4948 29.4774C49.5991 29.4523 49.6904 29.3896 49.7508 29.3012C51.8948 26.1631 53.5215 21.7565 53.9396 17.9676L54 16.8132C54.008 10.3123 50.3035 4.20206 44.1014 2.03585H44.1009ZM25.9709 18.8505C24.6203 18.8505 23.5218 17.752 23.5218 16.4014C23.5218 15.0508 24.6203 13.9523 25.9709 13.9523C27.3215 13.9523 28.42 15.0508 28.42 16.4014C28.42 17.752 27.3215 18.8505 25.9709 18.8505Z" fill="white"/>
<path d="M25.9704 13.9541C24.6197 13.9541 23.5212 15.0526 23.5212 16.4032C23.5212 17.7538 24.6197 18.8523 25.9704 18.8523C27.321 18.8523 28.4195 17.7538 28.4195 16.4032C28.4195 15.0526 27.321 13.9541 25.9704 13.9541Z" fill="#4A91E5"/>
<path d="M25.6576 22.0433C22.6889 22.0433 20.2734 19.6279 20.2734 16.6591C20.2734 16.3089 20.5575 16.0249 20.9077 16.0249C21.2579 16.0249 21.5419 16.3089 21.5419 16.6591C21.5419 18.9286 23.3882 20.7748 25.6576 20.7748C26.0078 20.7748 26.2919 21.0589 26.2919 21.4091C26.2919 21.7593 26.0078 22.0433 25.6576 22.0433Z" fill="#4A91E5"/>
<path d="M43.0397 34.9438C41.3555 35.3824 39.7904 36.1895 38.4558 37.3063C34.4279 40.6765 29.8166 44.4489 27.8443 45.8023C27.7228 45.8856 27.5905 45.9723 27.4427 45.9694C27.2899 45.9666 27.1576 45.8673 27.0366 45.7726C25.5395 44.5977 24.0577 43.4022 22.5713 42.2136C21.8173 41.6107 21.0633 41.0079 20.3093 40.405C20.1285 40.2601 19.9471 40.1158 19.7663 39.971C19.5222 39.7753 19.5051 39.6881 19.2792 39.9088C19.0026 40.2042 18.706 40.4529 18.3934 40.6525C18.3917 40.6537 18.39 40.6548 18.3883 40.656C18.3843 40.6582 18.3803 40.6611 18.3763 40.6634C18.3438 40.6839 18.3107 40.7039 18.2777 40.7238C18.2754 40.7256 18.2725 40.7267 18.2702 40.7284C17.7273 41.0484 17.137 41.2246 16.5147 41.2486C16.509 41.2486 16.5033 41.2486 16.4982 41.2491C16.4548 41.2509 16.412 41.2514 16.3687 41.2514C16.3213 41.2514 16.2734 41.2503 16.2255 41.2486C16.2244 41.2486 16.2232 41.2486 16.2221 41.2486C16.1753 41.2469 16.1286 41.244 16.0812 41.2406C16.0812 41.2406 16.0806 41.2406 16.0801 41.2406C17.9583 42.7977 19.8279 44.3656 21.7432 45.877C22.662 46.602 23.5905 47.3166 24.5442 47.9959C25.2155 48.4739 25.8526 49.0619 26.6357 49.3534C27.5083 49.6785 28.207 49.371 28.9525 48.8851C32.2235 46.7525 42.7631 37.7939 45.814 35.3545C46.0358 35.1771 46.3991 34.8617 46.8041 34.495C46.9849 34.3313 46.8286 34.0341 46.5914 34.0912L43.0779 34.9336L43.0403 34.9433L43.0397 34.9438Z" fill="white"/>
<path d="M42.8167 0.260598C42.7425 0.26231 47.9938 0.448247 51.7918 5.3345C52.1831 5.83755 52.9531 5.28773 52.5966 4.75958C50.9363 2.30134 48.0018 0.147668 42.8173 0.260598H42.8167Z" fill="#4A91E5"/>
<path d="M6.46675 8.58936C6.46675 8.58936 3.7798 12.1581 4.41233 17.2269C4.48761 17.8326 5.39163 17.739 5.34885 17.1305C5.16577 14.5188 5.30779 11.3482 6.46675 8.58936Z" fill="#4A91E5"/>
</svg>
