<svg width="545" height="157" viewBox="0 0 545 157" fill="none" xmlns="http://www.w3.org/2000/svg">
<path d="M86.9902 117.196C86.9902 95.6045 104.732 78.0718 126.541 78.0718C143.323 78.0718 157.54 88.9759 162.885 104.152H154.227C149.419 93.2476 138.834 85.7663 126.544 85.7663C109.442 85.7663 95.5454 99.8761 95.5454 117.192C95.5454 134.507 109.442 148.617 126.544 148.617C138.838 148.617 149.419 141.029 154.227 130.232H162.992C157.646 145.411 143.323 156.312 126.541 156.312C104.736 156.312 86.9902 138.783 86.9902 117.188V117.196Z" fill="#1F416B"/>
<path d="M171.539 127.883C171.539 112.17 184.472 99.4497 200.398 99.4497C216.324 99.4497 229.257 112.17 229.257 127.883C229.257 143.595 216.324 156.316 200.398 156.316C184.472 156.316 171.539 143.595 171.539 127.883ZM200.398 149.047C211.835 149.047 221.136 139.426 221.136 127.883C221.136 116.339 211.835 106.718 200.398 106.718C188.961 106.718 179.659 116.232 179.659 127.883C179.659 139.533 188.961 149.047 200.398 149.047Z" fill="#1F416B"/>
<path d="M242.088 101.163H249.357V108.431C253.526 102.979 260.047 99.4536 267.742 99.4536C280.036 99.4536 291.26 108.218 291.26 119.122V154.61H283.135V119.548C283.135 112.494 275.76 106.722 266.672 106.722C257.584 106.722 250.209 112.494 250.209 119.548V154.61H242.084V101.163H242.088Z" fill="#1F416B"/>
<path d="M303.123 138.467H311.247C311.247 144.026 316.806 149.047 326.214 149.047C333.269 149.047 339.68 146.162 339.68 140.923C339.68 135.364 332.625 133.335 324.714 131.088C314.986 128.309 303.975 124.566 303.975 114.519C303.975 102.762 317.229 99.4458 325.247 99.4458C337.434 99.4458 346.944 107.14 346.944 116.655H338.82C338.82 111.74 333.905 106.714 324.603 106.714C317.975 106.714 312.096 109.28 312.096 114.195C312.096 119.647 319.151 121.783 326.952 123.923C336.787 126.596 347.797 130.551 347.797 140.706C347.797 152.462 334.544 156.312 325.776 156.312C313.056 156.312 303.115 148.293 303.115 138.459L303.123 138.467Z" fill="#1F416B"/>
<path d="M359.771 136.651V101.163H367.896V136.224C367.896 143.279 375.271 149.051 384.359 149.051C393.447 149.051 400.822 143.279 400.822 136.224V101.163H408.947V154.61H401.679V147.342C397.51 152.794 390.988 156.319 383.293 156.319C370.999 156.319 359.775 147.555 359.775 136.651H359.771Z" fill="#1F416B"/>
<path d="M425.192 76.3623H433.317V154.606H425.192V76.3623Z" fill="#1F416B"/>
<path d="M492.631 147.76H472.974C468.485 147.76 464.849 144.448 464.849 140.279V108.64H481.206V101.372H464.849V87.2625H456.724V101.372H444.431V108.64H456.724V140.279C456.724 148.404 463.993 154.815 472.97 154.815H501.454C498.801 153.406 496.373 151.614 494.214 149.462C493.661 148.913 493.136 148.345 492.631 147.76Z" fill="#1F416B"/>
<path d="M487.08 128.092C487.08 112.379 500.013 99.6589 515.406 99.6589C524.601 99.6589 532.615 104.254 537.534 111.416V101.368H544.803V154.815H537.534V144.768C532.619 151.929 524.601 156.525 515.406 156.525C500.013 156.525 487.08 143.805 487.08 128.092ZM515.939 149.257C527.376 149.257 536.678 139.742 536.678 128.092C536.678 116.442 527.376 106.927 515.939 106.927C504.502 106.927 495.201 116.442 495.201 128.092C495.201 139.742 504.502 149.257 515.939 149.257Z" fill="#1F416B"/>
<path d="M273.06 55.7558C271.529 52.1948 269.424 49.0759 266.756 46.4032C264.087 43.7304 260.913 41.6104 257.241 40.0431C253.57 38.4758 249.598 37.6901 245.322 37.6901C241.047 37.6901 237.162 38.456 233.459 39.9878C229.752 41.5196 226.511 43.6041 223.731 46.2413C220.952 48.8785 218.741 51.9974 217.103 55.5939C216.076 57.8482 215.37 60.1893 214.987 62.6252V32.2854C214.987 26.482 210.328 21.7642 204.544 21.6695C201.039 21.6103 197.738 23.3394 195.681 26.178L182.203 44.7569C179.601 48.3455 174.256 48.3495 171.642 44.7687L157.99 26.0398C155.989 23.2921 152.791 21.6655 149.392 21.6655H149.388C143.525 21.6655 138.768 26.4188 138.768 32.2854V78.2115C142.771 79.5065 146.569 81.4409 150.047 83.9873C151.745 85.227 153.332 86.589 154.805 88.0576C154.805 76.6403 154.805 65.2229 154.805 53.8055C154.805 53.0475 154.891 52.1237 155.76 51.9342C156.261 51.8237 156.778 52.025 157.11 52.4158C160.446 56.3519 162.831 61.4487 167.201 64.457C171.402 67.3508 176.94 68.168 181.82 66.7231C188.765 64.6623 192.266 58.314 196.333 52.8343C196.641 52.4198 196.968 51.9855 197.572 51.95C197.928 51.9303 198.283 52.0526 198.536 52.3053C198.954 52.7238 198.962 53.3199 198.962 53.8766C198.942 58.7878 198.954 63.7029 198.954 68.6142V92.2345C198.954 94.5954 200.865 96.5062 203.226 96.5062H210.715C213.076 96.5062 214.987 94.5954 214.987 92.2345V71.5317C215.362 73.9123 216.049 76.2139 217.047 78.4287C218.65 81.9936 220.826 85.1085 223.569 87.7813C226.313 90.454 229.554 92.5583 233.297 94.0861C237.04 95.6179 241.047 96.3838 245.322 96.3838C247.889 96.3838 250.415 96.0956 252.91 95.5231C255.405 94.9468 257.79 94.1414 260.072 93.1031C262.35 92.0608 264.454 90.8054 266.377 89.3328C268.299 87.8602 269.973 86.1942 271.402 84.3269L266.621 81.3975C262.492 78.8669 257.411 78.4879 252.93 80.3237C252.906 80.3355 252.883 80.3434 252.855 80.3553C250.395 81.3541 247.885 81.8515 245.318 81.8515C241.753 81.8515 238.816 80.8843 236.499 78.9419C234.181 77.0035 232.559 74.6939 231.635 72.0173H272.599C273.98 72.0173 275.129 70.9592 275.244 69.5853V69.5616C275.315 68.7049 275.354 67.8877 275.354 67.1021C275.354 63.1108 274.588 59.3365 273.057 55.7716L273.06 55.7558ZM232.069 60.9947C233.21 58.5746 234.904 56.5059 237.146 54.7964C239.393 53.087 242.117 52.2303 245.322 52.2303C248.528 52.2303 251.272 53.087 253.554 54.7964C255.832 56.5059 257.51 58.5746 258.58 60.9947H232.069Z" fill="#0092E8"/>
<path d="M324.837 19.4112C320.408 19.4112 316.819 22.9999 316.819 27.4294V43.9988C314.537 42.1473 312.026 40.6313 309.283 39.4548C306.539 38.2783 303.673 37.6901 300.676 37.6901C296.685 37.6901 292.907 38.456 289.346 39.9877C285.781 41.5195 282.666 43.604 279.993 46.2412C277.672 48.535 275.777 51.1919 274.316 54.2081C274.446 54.4884 274.572 54.7648 274.695 55.049C276.317 58.8232 277.139 62.8699 277.139 67.0823C277.139 67.8995 277.099 68.7759 277.024 69.6879V69.7195C276.831 71.9974 274.888 73.7819 272.598 73.7819H272.152C272.527 75.365 273.037 76.9086 273.684 78.4128C275.216 81.9778 277.3 85.0927 279.938 87.7654C282.575 90.4381 285.674 92.5424 289.239 94.0702C292.8 95.602 296.614 96.3679 300.676 96.3679C303.669 96.3679 306.519 95.7757 309.227 94.5913C311.936 93.407 314.466 91.8436 316.815 89.9052V94.2281C325.67 94.2281 332.848 87.0508 332.848 78.1956V27.4215C332.848 22.9959 329.259 19.4033 324.829 19.4033L324.837 19.4112ZM316.069 72.8383C315.283 74.6504 314.225 76.2138 312.903 77.5245C311.58 78.8392 310.005 79.8853 308.181 80.667C306.357 81.4487 304.411 81.8396 302.334 81.8396C300.258 81.8396 298.311 81.4487 296.487 80.667C294.663 79.8853 293.092 78.8392 291.766 77.5245C290.443 76.2099 289.389 74.6465 288.599 72.8383C287.814 71.0262 287.419 69.0918 287.419 67.031C287.419 64.9701 287.81 63.0357 288.599 61.2275C289.385 59.4154 290.443 57.8521 291.766 56.5413C293.088 55.2267 294.663 54.1805 296.487 53.3988C298.311 52.6171 300.262 52.2263 302.334 52.2263C304.407 52.2263 306.357 52.6171 308.181 53.3988C310.005 54.1805 311.576 55.2267 312.903 56.5413C314.225 57.856 315.279 59.4194 316.069 61.2275C316.855 63.0396 317.249 64.9741 317.249 67.031C317.249 69.0878 316.855 71.0262 316.069 72.8383Z" fill="#0092E8"/>
<path d="M86.7463 73.4027C86.2488 73.5291 85.6882 73.6475 85.2461 73.379C84.8473 73.1343 84.6815 72.6487 84.5473 72.1986C83.1932 67.6664 82.5181 62.692 80.252 58.4993C79.6558 57.3979 78.8544 56.2925 77.6621 55.9016C76.3712 55.4752 74.9104 56.024 73.9235 56.9597C72.9365 57.8953 72.3364 59.1586 71.8153 60.4141C69.6755 65.574 68.5109 71.0774 67.2357 76.4979C66.9159 77.856 66.604 79.2022 66.2408 80.5524C66.0513 81.263 65.8579 81.9737 65.6684 82.6803C65.5736 83.0356 65.4789 83.3909 65.3802 83.7462C65.3052 84.0265 65.1275 84.3977 65.1275 84.6859C64.8433 85.7439 64.5551 86.8059 64.1169 87.8087C63.9353 88.2232 63.7181 88.6377 63.3707 88.9259C62.6403 89.5339 61.4915 89.4036 60.7256 88.843C59.9597 88.2824 59.5136 87.3823 59.2135 86.4782C58.5227 84.3977 57.8949 82.2855 57.3343 80.1616C55.6881 74.0423 54.0576 67.8914 52.4784 61.7445C52.1389 60.422 51.7915 59.0639 51.0216 57.9348C50.2518 56.8057 48.9608 55.9292 47.5988 56.0398C46.5131 56.1306 45.5656 56.8215 44.8352 57.6269C42.1665 60.5799 41.9335 64.7647 41.3532 68.5034C40.6742 72.854 39.8096 77.1927 38.408 81.3736C38.2975 81.7012 38.1751 82.0408 37.9225 82.2776C37.3579 82.8027 36.442 82.5698 35.759 82.2145C34.089 81.3499 32.7586 79.9918 31.4637 78.6535C24.4996 71.4525 17.6578 63.8882 12.9874 54.9541C10.6148 50.414 8.57368 45.4475 7.76436 40.3824C6.97872 35.4633 7.23139 30.3626 8.74344 25.6053C9.41854 23.4813 10.3384 21.4363 11.4872 19.5255C14.9061 13.8247 20.3819 9.3478 26.9078 7.77258C32.7468 6.35923 39.1187 7.29884 44.3023 10.3308C45.8617 11.2428 47.3896 12.364 49.1819 12.593C50.9743 12.822 53.1101 11.7047 53.1693 9.90052C53.2127 8.5977 52.206 7.51203 51.2111 6.66717C44.176 0.693978 34.1364 -1.36684 25.1865 0.895311C16.2366 3.15747 8.51841 9.54125 4.1836 17.6897C1.52271 22.6918 0.0738292 28.3373 0.00276682 34.0065C-0.123566 44.1803 4.0928 53.7974 9.28036 62.3407C13.5362 69.3482 18.7159 75.7202 24.3693 81.646C24.3693 81.646 30.3819 88.3929 32.727 89.7984C33.3429 90.1695 34.0298 90.434 34.7247 90.6196C40.9426 92.2817 44.3339 86.2848 45.7038 81.1564C46.4223 78.46 46.6434 75.7044 46.9395 72.9369C46.975 72.6013 47.0145 72.2499 47.2593 71.9894C47.354 71.8867 47.4843 71.8117 47.6225 71.7959C48.037 71.7485 48.2581 72.1394 48.3963 72.475C48.6174 73.0119 48.7832 73.5685 48.9174 74.1331C50.0781 78.9772 51.3651 83.7699 52.5692 88.5982C53.5878 92.5027 55.8697 95.7637 60.1887 96.5533C63.1299 97.0902 66.304 96.1269 68.4477 94.0424C71.0375 91.5236 71.9535 87.7929 72.7588 84.2713C73.6511 80.3629 74.5433 76.4544 75.4474 72.546C75.5382 72.1552 75.8461 71.8394 76.2409 71.7722C76.7186 71.6933 76.9713 72.0565 77.145 72.4039C77.9661 74.0462 77.9188 75.9807 78.8465 77.5836C79.6716 79.0088 81.3969 79.6562 82.9839 79.7352C84.5631 79.8141 86.1225 79.4154 87.6504 79.0167C88.7005 78.7442 89.7506 78.4679 90.8047 78.1955L96.3555 76.7506L113.158 72.7237C113.959 72.5144 114.626 71.9617 114.974 71.2116C115.961 69.0916 114.042 66.7742 111.772 67.3506L86.7463 73.4027Z" fill="#1F416B"/>
<path d="M99.0836 4.5671C89.3441 1.16401 78.9255 3.28009 70.8876 9.58884C69.7624 10.4732 68.6925 11.4246 67.6818 12.4392C64.7604 15.3725 62.289 18.7677 60.3821 22.4432C59.6833 23.7895 59.0635 25.1791 58.5345 26.6004C58.4713 26.6004 58.4121 26.5964 58.3489 26.5964C52.6955 26.5964 48.0962 31.1957 48.0962 36.8491C48.0962 42.5025 52.6955 47.1019 58.3489 47.1019C64.0024 47.1019 68.6017 42.5025 68.6017 36.8491C68.6017 33.8093 67.2713 31.0734 65.1591 29.1942C67.4094 24.5712 70.0348 20.0863 73.8011 16.5293C78.4636 12.1273 84.7408 9.58885 91.1799 10.1218C96.7228 10.5798 102.068 13.2446 106.048 17.1175C112.89 23.7697 115.389 33.9435 113.557 43.1658C111.922 51.4051 107.248 60.6945 101.879 67.3428C101.504 67.8047 101.934 68.4758 102.51 68.3377L111.2 66.2295C111.433 66.1742 111.638 66.0321 111.776 65.8347C116.593 58.7837 120.248 48.8824 121.188 40.3707L121.322 37.7769C121.338 23.1696 113.016 9.44277 99.0836 4.575V4.5671ZM58.3489 42.3486C55.313 42.3486 52.8455 39.8811 52.8455 36.8452C52.8455 33.8093 55.313 31.3418 58.3489 31.3418C61.3849 31.3418 63.8524 33.8093 63.8524 36.8452C63.8524 39.8811 61.3849 42.3486 58.3489 42.3486Z" fill="#1F416B"/>
<path d="M58.3486 31.3418C55.3127 31.3418 52.8452 33.8092 52.8452 36.8452C52.8452 39.8811 55.3127 42.3486 58.3486 42.3486C61.3846 42.3486 63.852 39.8811 63.852 36.8452C63.852 33.8092 61.3846 31.3418 58.3486 31.3418Z" fill="#4A91E5"/>
<path d="M57.6423 49.5221C50.9703 49.5221 45.5459 44.0937 45.5459 37.4257C45.5459 36.6401 46.1855 36.0005 46.9711 36.0005C47.7567 36.0005 48.3963 36.6401 48.3963 37.4257C48.3963 42.5264 52.5455 46.6717 57.6423 46.6717C58.4279 46.6717 59.0675 47.3113 59.0675 48.0969C59.0675 48.8825 58.4279 49.5221 57.6423 49.5221Z" fill="#4A91E5"/>
<path d="M96.7047 78.5032C92.9226 79.4902 89.405 81.3023 86.4046 83.8131C77.356 91.3852 66.9927 99.8614 62.5631 102.901C62.2907 103.087 61.9946 103.284 61.663 103.276C61.3195 103.268 61.0234 103.047 60.751 102.834C57.3874 100.193 54.0593 97.5085 50.7194 94.8397C49.0257 93.4855 47.332 92.1314 45.6384 90.7773C45.2318 90.4535 44.8251 90.1259 44.4185 89.8021C43.8697 89.3639 43.8302 89.1665 43.3249 89.664C42.7051 90.3272 42.0379 90.8878 41.3352 91.3339C41.3352 91.3339 41.3273 91.3379 41.3233 91.3418C41.3154 91.3458 41.3036 91.3537 41.2957 91.3576C41.2207 91.405 41.1496 91.4484 41.0746 91.4918C41.0706 91.4918 41.0627 91.4997 41.0588 91.5037C39.8389 92.2222 38.5124 92.617 37.1148 92.6723C37.103 92.6723 37.0911 92.6723 37.0753 92.6723C36.9767 92.6723 36.8819 92.6762 36.7832 92.6762C36.6766 92.6762 36.57 92.6762 36.4595 92.6683C36.4595 92.6683 36.4555 92.6683 36.4516 92.6683C36.345 92.6683 36.2423 92.6604 36.1357 92.6525C40.3561 96.1504 44.5567 99.6759 48.8599 103.071C50.9247 104.702 53.0092 106.304 55.1529 107.832C56.661 108.906 58.0901 110.229 59.8509 110.884C61.813 111.614 63.3803 110.923 65.0543 109.83C72.4053 105.037 96.0849 84.9107 102.938 79.427C103.436 79.0283 104.253 78.3216 105.161 77.4965C105.568 77.1293 105.216 76.4621 104.683 76.5884L96.7916 78.4795L96.7087 78.5032H96.7047Z" fill="#1F416B"/>
<path d="M36.4497 92.8782C36.5634 92.8824 36.677 92.8866 36.7949 92.8866C36.6812 92.8866 36.5676 92.8866 36.4497 92.8782Z" fill="#1F416B"/>
<path d="M36.7695 92.8863C36.8748 92.8863 36.9758 92.8863 37.081 92.8821C36.9758 92.8821 36.8748 92.8863 36.7695 92.8863Z" fill="#1F416B"/>
<path d="M36.126 92.8623C36.2396 92.8707 36.3491 92.8749 36.4627 92.8791C36.3491 92.8749 36.2396 92.8665 36.126 92.8623Z" fill="#1F416B"/>
<path d="M43.311 89.8699C42.6833 90.4818 42.0635 91.0661 41.3213 91.5399C42.024 91.0898 42.6912 90.5331 43.311 89.8699Z" fill="#1F416B"/>
<path d="M41.061 91.7166C41.1466 91.6671 41.2277 91.613 41.3133 91.5635C41.2277 91.6175 41.1466 91.6671 41.061 91.7166Z" fill="#1F416B"/>
<path d="M37.1011 92.878C38.4986 92.8228 39.8251 92.428 41.045 91.7095C39.8449 92.4122 38.4907 92.8228 37.1011 92.878Z" fill="#1F416B"/>
<path d="M96.1975 0.575634C96.0317 0.575634 107.828 0.998064 116.363 11.9772C117.244 13.1063 118.973 11.8706 118.172 10.6863C114.441 5.16312 107.848 0.322971 96.1975 0.579586V0.575634Z" fill="#4A91E5"/>
</svg>
